<svg xmlns="http://www.w3.org/2000/svg" width="1440" height="291" viewBox="0 0 1440 291" fill="none"><path fill-rule="evenodd" clip-rule="evenodd" d="M614.285 288.24V281.689H617.086V154.287L646.301 120.057H650.61L655.76 126.1H675.634V97.6987H673.471V92.6612H676.538L693.413 54.4727V54.5009L710.265 92.6612H714.297V97.6987H711.473V126.061L714.862 126.1L720.007 120.063H724.31L753.604 154.473V159.934H782.897V91.3622H790.623V98.0432H813.778V90.7805H812.084V84.4666H827.586V90.7805H825.83V98.0432H881.983V91.3622H889.709V140.676H918.551V288.308L614.285 288.24ZM1096.95 78.0234H1111V70H1199V78.0234H1213.22V287.942H1096.95V78.0234ZM556.869 137.448H543.259V102.129H545.834V98.5199H543.242V79.4086C543.242 73.9136 534.883 73.8458 534.883 79.4482L479.865 57.7617L423.334 79.5555V79.1997C423.334 78.6509 423.226 78.1074 423.016 77.6004C422.806 77.0934 422.498 76.6327 422.11 76.2446C421.722 75.8565 421.261 75.5487 420.754 75.3386C420.247 75.1286 419.703 75.0205 419.155 75.0205C418.606 75.0205 418.062 75.1286 417.555 75.3386C417.048 75.5487 416.587 75.8565 416.199 76.2446C415.811 76.6327 415.504 77.0934 415.293 77.6004C415.083 78.1074 414.975 78.6509 414.975 79.1997V98.5368H412.236V102.146H414.975V287.441H445.946H556.869V137.448ZM286.031 172.242V97.2092H301.059V82.6895H391.945V173.761L286.031 172.242Z" fill="#FEF1E4"></path><path d="M804.721 129.858H823.013H826.752H857.717V124.238H826.752H823.013H804.721V129.858Z" fill="#FEF8F2"></path><path d="M804.721 144.344H823.013H826.752H857.717V138.719H826.752H823.013H804.721V144.344Z" fill="#FEF8F2"></path><path d="M804.721 158.826H823.013H826.752H857.717V153.201H826.752H823.013H804.721V158.826Z" fill="#FEF8F2"></path><g clip-path="url(#clip0_426_4917)"><path d="M1052.19 191.258H1042.6V200.842H1052.19V191.258Z" fill="white"></path><path d="M565.81 226.426L503.434 288.803H509.313L565.81 232.305V226.426Z" fill="#FEF8F2"></path><path d="M565.81 201.377L478.387 288.801H484.26L565.81 207.256V201.377Z" fill="#FEF8F2"></path><path d="M565.807 213.9L490.904 288.798H496.783L565.807 219.774V213.9Z" fill="#FEF8F2"></path><path d="M565.811 250.492L527.504 288.799H533.383L565.811 256.371V250.492Z" fill="#FEF8F2"></path><path d="M565.809 275.549L552.555 288.804H558.428L565.809 281.422V275.549Z" fill="#FEF8F2"></path><path d="M565.808 263.021L540.027 288.802H545.901L565.808 268.901V263.021Z" fill="#FEF8F2"></path><path d="M565.81 237.967L514.977 288.8H520.856L565.81 243.846V237.967Z" fill="#FEF8F2"></path><path d="M936.567 288.455L944.813 280.21V274.613L930.965 288.455H936.567Z" fill="#FEF8F2"></path><path d="M1168.81 289.458V287.549L1166.9 289.458H1168.81Z" fill="#FEF8F2"></path><path d="M924.626 288.455L944.81 268.276V262.674L919.029 288.455H924.626Z" fill="#FEF8F2"></path><path d="M926.96 287.307L930.772 283.495V277.898L921.357 287.307H926.96Z" fill="#FEF8F2"></path><path d="M723.963 231.549V234.39L726.803 231.549H723.963Z" fill="#FEF8F2"></path><path d="M462.155 269.545L458.846 256.894H459.552L458.885 244.091L457.53 236.01L457.219 235.716C457.494 235.717 457.768 235.679 458.032 235.603C459.896 235.038 460.856 232.7 460.15 230.351C459.444 228.001 457.377 226.544 455.514 227.098C453.65 227.651 452.69 230.001 453.401 232.35C453.638 233.17 454.07 233.92 454.661 234.536L453.452 237.201L448.855 244.741L448.025 256.922L450.086 257.12L449.815 262.496L450.199 262.886L450.086 269.663L443.275 283.692L444.766 285.584L454.706 271.578L456.073 268.929L457.959 270.855L460.726 287.696H462.934L462.155 269.545Z" fill="white"></path><path d="M325.859 279.996H257.637V286.655H325.859V279.996Z" fill="white"></path><path d="M290.604 153.256L275.615 168.244H281.46L296.449 153.256H290.604Z" fill="#FEF1E4"></path><path d="M278.143 153.256L263.154 168.244H268.999L283.988 153.256H278.143Z" fill="#FEF1E4"></path><path d="M303.069 153.256L288.08 168.244H293.92L308.908 153.256H303.069Z" fill="#FEF1E4"></path><path d="M327.989 153.256L313 168.244H318.845L333.834 153.256H327.989Z" fill="#FEF1E4"></path><path d="M340.447 153.256L325.459 168.244H331.304L346.293 153.256H340.447Z" fill="#FEF1E4"></path><path d="M352.912 153.256L337.924 168.244H337.963L358.436 153.256H352.912Z" fill="#FEF1E4"></path><path d="M315.526 153.256L300.537 168.244H306.382L321.371 153.256H315.526Z" fill="#FEF1E4"></path><path d="M339.071 176.581L373.397 151.449L335.672 116.988H247.48L217.949 141.583L265.75 176.581H339.071Z" fill="#FFE2D2"></path><path d="M227.689 177.64V280.006H284.374H286.153H336.404V177.459L227.689 177.64Z" fill="#FEF8F2"></path><path d="M148.932 176.036V280.007H205.61H207.395H257.646V175.855L148.932 176.036Z" fill="white"></path><path d="M437.074 190.723H326.061V280.004H437.074V190.723Z" fill="white"></path><path d="M325.859 179.553H321.33V286.855H325.859V179.553Z" fill="#FEF1E4"></path><path d="M329.125 177.131H149.139V181.57H329.125V177.131Z" fill="#FEF1E4"></path><path d="M437.213 192.111H326.211V196.55H437.213V192.111Z" fill="#FEF1E4"></path><path d="M381.57 132.713L315.691 187.24H447.448L381.57 132.713Z" fill="#FEF8F2"></path><path d="M203.265 116.434L137.387 172.327H269.143L203.265 116.434Z" fill="#FEF8F2"></path><path d="M447.77 187.248H316.014V192.24H447.77V187.248Z" fill="#FFE2D2"></path><path d="M268.737 172.141H137.387V177.342H268.737V172.141Z" fill="#FFE2D2"></path><path d="M257.64 279.996H138.398V287.651H257.64V279.996Z" fill="white"></path><path d="M449.576 279.996H325.861V286.655H449.576V279.996Z" fill="white"></path><path d="M224.004 202.301H179.902V255.698H224.004V202.301Z" fill="#FEF1E4"></path><path d="M312.404 209.674H271.635V240.622H312.404V209.674Z" fill="#FEF1E4"></path><path d="M308.869 213.209V237.087H275.17V213.209H308.869ZM312.404 209.674H271.635V240.645H312.387V209.696L312.404 209.674Z" fill="#FFE2D2"></path><path d="M394.356 242.16H368.643V279.428H394.356V242.16Z" fill="#FEF1E4"></path><path d="M416.346 227.372L404.898 215.128L358.877 215.105L347.361 227.321V232.037H416.346V227.372Z" fill="#FEF1E4"></path><path d="M262.765 179.352H257.959V286.654H262.765V179.352Z" fill="#FEF1E4"></path><path d="M354.918 232.404H350.965V280.165H354.918V232.404Z" fill="#FEF1E4"></path><path d="M412.469 232.404H408.516V280.165H412.469V232.404Z" fill="#FEF1E4"></path><path d="M268.866 172.491L225.623 135.155L229.605 130.547L277.784 172.141L268.866 172.491Z" fill="#FFE2D2"></path><path d="M366.46 145.554L335.715 172.324L326.65 172.137L362.461 140.963L366.46 145.554Z" fill="#FFE2D2"></path><path d="M328.516 177.822H269.754V172.327L333.932 172.141L328.516 177.822Z" fill="#FEF1E4"></path><path d="M417.069 227.934H347.361V232.039H417.069V227.934Z" fill="#FEF1E4"></path><path d="M257.64 286.654H193.891L201.057 280.182H257.64V286.654Z" fill="#FEF1E4"></path><path d="M180.154 234.531L212.3 202.391H207.336L180.154 229.572V234.531Z" fill="white"></path><path d="M180.154 249.883V254.847L223.838 211.164V206.205L180.154 249.883Z" fill="white"></path><path d="M190.162 255.408L223.838 221.738V216.779L185.203 255.408H190.162Z" fill="white"></path><path d="M184.658 202.301H179.902V256.009H184.658V202.301Z" fill="#FFE2D2"></path><path d="M224.003 202.301H219.248V256.009H224.003V202.301Z" fill="#FEF1E4"></path><path d="M224.004 202.891H179.902V206.906H224.004V202.891Z" fill="#FFE2D2"></path><path d="M224.004 251.67H179.902V255.685H224.004V251.67Z" fill="#FEF1E4"></path><path d="M368.309 242.4V244.236L370.144 242.4H368.309Z" fill="#FEF1E4"></path><path d="M375.664 279.16L394.56 260.263V255.305L370.705 279.16H375.664Z" fill="#FEF1E4"></path><path d="M386.238 279.16L394.562 270.835V265.871L381.273 279.16H386.238Z" fill="#FEF1E4"></path><path d="M394.562 279.162V276.445L391.846 279.162H394.562Z" fill="#FEF1E4"></path><path d="M368.309 265.38L391.288 242.4H386.324L368.309 260.416V265.38Z" fill="#FEF1E4"></path><path d="M368.309 270.988V275.952L394.564 249.691V244.732L368.309 270.988Z" fill="#FEF1E4"></path><path d="M368.309 254.808L380.716 242.4H375.752L368.309 249.844V254.808Z" fill="#FEF1E4"></path><path d="M395.192 242.16H368.643V245.334H395.192V242.16Z" fill="#FFE2D2"></path><path d="M371.753 242.16H369.229V279.428H371.753V242.16Z" fill="#FFE2D2"></path><path d="M394.606 242.16H392.082V279.428H394.606V242.16Z" fill="#FEF1E4"></path><path d="M256.999 255.445H248.793V260.697H256.999V255.445Z" fill="#FEF8F2"></path><path d="M430.233 245.779H422.027V251.031H430.233V245.779Z" fill="#FEF8F2"></path><path d="M437.435 210.445H426.654V215.697H437.435V210.445Z" fill="#FEF8F2"></path><path d="M250.689 245.779H238.637V251.031H250.689V245.779Z" fill="#FEF8F2"></path><path d="M149.876 198.862L158.082 198.832L158.063 193.58L149.857 193.61L149.876 198.862Z" fill="#FEF8F2"></path><path d="M156.228 208.505L168.279 208.461L168.26 203.209L156.208 203.253L156.228 208.505Z" fill="#FEF8F2"></path><path d="M1191.35 277.293H1037.55V287.34H1191.35V277.293Z" fill="white"></path><path d="M1128.28 201.57H1063.64V277.117H1128.28V201.57Z" fill="#FEF8F2"></path><path d="M1062.05 279.464H919.623V142.913L990.799 100.127L1062.05 143.675V279.464Z" fill="white"></path><path d="M1075.36 140.769L991.12 89.3262L906.582 140.645L909.869 145.107L991.238 96.2218L1072.2 145.107L1075.36 140.769Z" fill="white"></path><path d="M1270.02 277.388H1127.8V137.561L1198.87 93.7422L1270.02 138.341V277.388Z" fill="white"></path><path d="M1283.25 144.994L1199.01 89.3262L1114.47 140.645L1117.76 145.107L1199.13 96.2218L1280.09 149.337L1283.25 144.994Z" fill="white"></path><path d="M1067.36 277.293H913.559V287.34H1067.36V277.293Z" fill="white"></path><path d="M1276.03 277.293H1122.24V287.34H1276.03V277.293Z" fill="white"></path><path d="M1127.56 193.908H1062.58V201.566H1127.56V193.908Z" fill="#FEF1E4"></path><path d="M1121.74 277.387H1068.13V287.338H1121.74V277.387Z" fill="#FEF1E4"></path><path d="M1128.28 201.57H1063.64V206.76H1128.28V201.57Z" fill="#FEF1E4"></path><path d="M1128.28 201.57H1120.88V276.801H1128.28V201.57Z" fill="#FEF1E4"></path><path d="M1068.68 201.57H1062.45V276.801H1068.68V201.57Z" fill="#FEF1E4"></path><path d="M1105.31 240.537H1085.28V277.291H1105.31V240.537Z" fill="#FEF1E4"></path><path d="M1105.31 240.609H1102.42V277.386H1105.31V240.609Z" fill="#FEF1E4"></path><path d="M1105.31 240.537H1085.28V243.903H1105.31V240.537Z" fill="#FFE2D2"></path><path d="M1088.84 240.537H1085.28V277.116H1088.84V240.537Z" fill="#FFE2D2"></path><path d="M1186.73 220.963H1147.61V252.148H1186.73V220.963Z" fill="#FEF1E4"></path><path d="M1150.23 252.148V224.656H1182.98V252.148H1186.16V220.963H1147.05V252.148H1150.23Z" fill="#FFE2D2"></path><path d="M1251.91 220.963H1212.79V252.148H1251.91V220.963Z" fill="#FEF1E4"></path><path d="M1215.41 252.148V224.656H1248.16V252.148H1251.34V220.963H1212.23V252.148H1215.41Z" fill="#FFE2D2"></path><path d="M1251.91 168.293H1212.79V199.479H1251.91V168.293Z" fill="#FEF1E4"></path><path d="M1215.41 199.484V171.992H1248.16V199.484H1251.34V168.293H1212.23V199.484H1215.41Z" fill="#FFE2D2"></path><path d="M1186.73 168.293H1147.61V199.479H1186.73V168.293Z" fill="#FEF1E4"></path><path d="M1150.23 199.484V171.992H1182.98V199.484H1186.16V168.293H1147.05V199.484H1150.23Z" fill="#FFE2D2"></path><path d="M1197.47 123.084C1194.72 122.67 1191.92 123.106 1189.43 124.333C1186.94 125.56 1184.89 127.52 1183.54 129.949C1182.2 132.378 1181.63 135.159 1181.92 137.92C1182.2 140.681 1183.33 143.288 1185.14 145.392C1186.95 147.495 1189.36 148.995 1192.05 149.688C1194.73 150.381 1197.57 150.235 1200.17 149.27C1202.77 148.304 1205.02 146.566 1206.6 144.287C1208.19 142.009 1209.03 139.3 1209.03 136.525C1209.03 133.272 1207.86 130.127 1205.74 127.661C1203.62 125.195 1200.69 123.571 1197.47 123.084Z" fill="#FEF1E4"></path><path d="M1190.2 146.464L1209.18 127.494C1208.96 127.189 1208.73 126.889 1208.49 126.596C1207.73 125.946 1207.03 125.232 1206.39 124.461L1186.82 143.99C1187.88 144.899 1188.86 145.989 1190.2 146.464Z" fill="white"></path><path d="M1210.65 136.697C1210.47 135.314 1210.47 133.913 1210.65 132.529L1194.55 148.625H1200.38L1210.59 138.408C1210.57 137.837 1210.59 137.266 1210.65 136.697Z" fill="white"></path><path d="M1127.63 145.272L1198.96 103.074L1269.85 149.649V143.329L1198.84 96.1836L1127.63 138.783V145.272Z" fill="#FEF1E4"></path><path d="M1200.27 123.086C1199.76 123.168 1199.25 123.279 1198.74 123.419C1201.64 124.181 1204.2 125.88 1206.03 128.252C1207.86 130.623 1208.85 133.533 1208.85 136.527C1208.85 139.521 1207.86 142.431 1206.03 144.802C1204.2 147.174 1201.64 148.873 1198.74 149.635C1199.25 149.775 1199.76 149.886 1200.27 149.968C1203.49 149.482 1206.43 147.859 1208.55 145.392C1210.67 142.926 1211.84 139.78 1211.84 136.527C1211.84 133.274 1210.67 130.128 1208.55 127.662C1206.43 125.195 1203.49 123.572 1200.27 123.086Z" fill="#FEF1E4"></path><path d="M1044.5 220.885H1005.38V252.07H1044.5V220.885Z" fill="#FEF1E4"></path><path d="M1008.01 252.076V224.584H1040.75V252.076H1043.94V220.885H1004.82V252.076H1008.01Z" fill="#FFE2D2"></path><path d="M1044.5 168.217H1005.38V199.402H1044.5V168.217Z" fill="#FEF1E4"></path><path d="M1008.01 199.402V171.91H1040.75V199.402H1043.94V168.217H1004.82V199.402H1008.01Z" fill="#FFE2D2"></path><path d="M979.324 168.217H940.209V199.402H979.324V168.217Z" fill="#FEF1E4"></path><path d="M942.83 199.402V171.91H975.574V199.402H978.759V168.217H939.645V199.402H942.83Z" fill="#FFE2D2"></path><path d="M979.324 220.498H940.209V251.684H979.324V220.498Z" fill="#FEF1E4"></path><path d="M942.83 251.684V224.192H975.574V251.684H978.759V220.498H939.645V251.684H942.83Z" fill="#FFE2D2"></path><path d="M990.064 149.894C996.452 149.894 1001.63 143.876 1001.63 136.453C1001.63 129.03 996.452 123.012 990.064 123.012C983.676 123.012 978.498 129.03 978.498 136.453C978.498 143.876 983.676 149.894 990.064 149.894Z" fill="#FEF1E4"></path><path d="M983.368 147.79L1001.02 129.486C1000.81 129.192 1000.6 128.921 1000.38 128.622C999.666 127.994 999.01 127.304 998.418 126.561L980.205 145.423C981.25 146.304 982.142 147.349 983.368 147.79Z" fill="white"></path><path d="M1002.43 138.39C1002.27 137.054 1002.28 135.703 1002.46 134.369L987.461 149.894H992.883L1002.4 140.039C1002.37 139.49 1002.38 138.939 1002.43 138.39Z" fill="white"></path><path d="M920.229 145.199L991.562 103.001L1062.45 145.154V138.835L991.444 96.1055L920.229 138.705V145.199Z" fill="#FEF1E4"></path><path d="M992.872 123.012C992.356 123.093 991.845 123.204 991.342 123.345C994.237 124.107 996.799 125.806 998.627 128.177C1000.46 130.549 1001.45 133.459 1001.45 136.453C1001.45 139.447 1000.46 142.357 998.627 144.728C996.799 147.1 994.237 148.799 991.342 149.561C991.845 149.702 992.356 149.813 992.872 149.894C996.089 149.408 999.025 147.784 1001.15 145.318C1003.27 142.852 1004.44 139.706 1004.44 136.453C1004.44 133.199 1003.27 130.054 1001.15 127.588C999.025 125.121 996.089 123.498 992.872 123.012Z" fill="#FEF1E4"></path><path d="M1104.99 277.025V272.693L1100.66 277.025H1104.99Z" fill="#FEF1E4"></path><path d="M1095.04 277.023L1104.99 267.083V262.125L1090.09 277.023H1095.04Z" fill="#FEF1E4"></path><path d="M595.461 201.258H482.641V280.493H595.461V201.258Z" fill="white"></path><rect x="481" y="202" width="2" height="77" fill="#1A2B56"></rect><path d="M644.654 145.803L597.898 201.261H595.458L595.334 280.502H688.083L688.106 201.233L644.654 145.803Z" fill="white"></path><path d="M543.543 138.943H523.817L473.525 197.875L476.908 201.258H597.895L644.651 145.799L688.103 201.23L693.654 201.241L644.758 138.938L581.608 138.943H543.543Z" fill="white"></path><path d="M698.44 280.357H610.215V287.925H698.44V280.357Z" fill="white"></path><path d="M610.219 280.357H472.402V287.925H610.219V280.357Z" fill="white"></path><path d="M596.433 205.546H600.601L644.849 153.657L682.112 200.492H689.075L644.674 145.914L598.867 200H596.32L596.433 205.546Z" fill="#FEF1E4"></path><path d="M595.455 197.653H473.525L522.952 139.737L644.758 138.721L595.455 197.653Z" fill="#FFE2D2"></path><path d="M599.28 158.998L577.402 133.393H548.176L525.586 159.405L528.912 162.703H535.689V160.557L550.712 143.744L567.581 162.709H595.694L599.28 158.998Z" fill="white"></path><path d="M567.584 162.731L550.709 143.744L535.67 160.557V184.807H567.443L586.757 162.697L567.584 162.731Z" fill="white"></path><path d="M595 201H483V206H595V201Z" fill="#FEF1E4"></path><path d="M595.334 201.02H590.861V280.136H595.334V201.02Z" fill="#FEF1E4"></path><path d="M610.218 287.704H524.488L533.101 280.277H610.218V287.704Z" fill="#FEF1E4"></path><path d="M662.645 206.812H623.203V268.444H662.645V206.812Z" fill="#FEF1E4"></path><path d="M559.142 230.246H529.877V280.131H559.142V230.246Z" fill="#FEF1E4"></path><path d="M534.305 230.246H529.877V279.82H534.305V230.246Z" fill="#FFE2D2"></path><path d="M558.532 230.246H529.877V233.702H558.532V230.246Z" fill="#FFE2D2"></path><path d="M554.148 218.531H517.281V223.704H554.148V218.531Z" fill="#FEF1E4"></path><path d="M522.347 218.531H517.281V279.829H522.347V218.531Z" fill="#FEF1E4"></path><path d="M586.757 163.131L567.584 184.806V163.165H576.112L586.757 163.131Z" fill="#FEF1E4"></path><path d="M597.874 159.371H570.325L548.176 133.387L577.413 133.392L597.874 159.371Z" fill="#FEF1E4"></path><path d="M559.941 160.021H540.971V179.568H559.941V160.021Z" fill="#FEF1E4"></path><path d="M544.207 160.021H540.971V179.568H544.207V160.021Z" fill="#FFE2D2"></path><path d="M559.941 160.021H540.971V162.732H559.941V160.021Z" fill="#FFE2D2"></path><path d="M595.697 163.164H567.821L567.584 186.065H575.586L595.697 163.164Z" fill="#FFE2D2"></path><path d="M630.156 268.233L662.692 235.703V231.592L626.045 268.233H630.156Z" fill="white"></path><path d="M661.12 206.869L622.887 245.103V249.214L662.69 209.411V206.869H661.12Z" fill="white"></path><path d="M622.887 253.862V257.974L662.69 218.17V214.059L622.887 253.862Z" fill="white"></path><path d="M627.41 206.812H623.203V268.331H627.41V206.812Z" fill="#FFE2D2"></path><path d="M662.645 206.623H623.203V210.379H662.645V206.623Z" fill="#FFE2D2"></path><path d="M557.983 280.018V276.59L554.555 280.018H557.983Z" fill="#FEF1E4"></path><path d="M549.898 280.019L557.98 271.943V267.826L545.787 280.019H549.898Z" fill="#FEF1E4"></path><path d="M533.063 280.018L557.98 255.102V250.99L529.996 278.974V280.018H533.063Z" fill="#FEF1E4"></path><path d="M541.143 280.019L557.984 263.178V259.066L537.031 280.019H541.143Z" fill="#FEF1E4"></path><path d="M840.809 275.818C839.482 269.843 831.389 265.246 821.608 265.246C811.826 265.246 803.733 269.843 802.406 275.818H840.809Z" fill="#FEF1E4"></path><path d="M809.728 280.732H775.707V287.995H809.728V280.732Z" fill="white"></path><path d="M843.943 280.59H809.725V287.999H843.943V280.59Z" fill="white"></path><path d="M845.686 231.063H818.601V228.025L810.35 205.887L845.686 228.437V231.063Z" fill="#FEF1E4"></path><path d="M844.663 281.273H776.424V284.295H844.663V281.273Z" fill="#FEF1E4"></path><path d="M882.107 258.234L890.968 258.251L891.234 262.148L887.653 267.694L883.423 271.246L880.967 285.63V287.607H877.838L879.267 271.032L882.107 258.234Z" fill="#FEF1E4"></path><path d="M885.783 269.692L887.11 272.979L896.146 285.449L898.072 284.076L892.329 272.284L890.589 270.409L890.968 264.553L885.783 269.692Z" fill="#FEF1E4"></path><path d="M891.705 248.839L894.331 247.32C894.331 247.32 891.829 241.746 890.169 240.707C888.509 239.668 886.3 238.369 886.3 238.369L885.962 236.239C886.808 235.728 887.48 234.972 887.887 234.071C888.104 233.61 888.251 233.118 888.322 232.614L890.304 236.686L894.037 233.975V232.151L889.655 228.514L887.164 229.237C887.037 229.143 886.901 229.061 886.758 228.994C885.177 228.254 883.11 229.333 882.15 231.394C881.189 233.455 881.686 235.737 883.279 236.477C883.427 236.541 883.58 236.592 883.736 236.629L883.104 240.08L880.201 245.62L881.297 249.477V254.024L880.969 258.237H891.931L888.814 246.817L891.705 248.839Z" fill="white"></path><path d="M717.088 257.924C717.088 257.924 716.709 250.102 717.212 247.832C717.715 245.562 720.414 236.537 720.414 236.537C720.193 236.23 720.003 235.9 719.849 235.554C718.968 233.453 719.556 231.2 721.165 230.517C722.775 229.833 724.802 230.991 725.683 233.092C726.564 235.193 725.983 237.446 724.368 238.124C724.175 238.208 723.972 238.265 723.763 238.293L724.735 242.676L727.186 247.064L726.209 249.786L726.519 255.49L726.926 257.608L717.088 257.924Z" fill="white"></path><path d="M726.945 257.639L717.09 257.927L715.373 267.595L728.391 267.437L726.945 257.639Z" fill="#FEF1E4"></path><path d="M725.873 231.318C725.873 231.318 725.218 228.85 723.524 228.782C721.83 228.714 719.944 228.821 718.916 229.849C717.888 230.877 716.459 240.359 716.459 240.359C716.459 240.359 720.503 243.816 721.073 243.816C721.643 243.816 721.073 232.34 721.073 232.34L725.873 231.318Z" fill="#FEF1E4"></path><path d="M746.118 250.77V265.735H734.326V268.983C734.325 269.438 734.414 269.889 734.588 270.31C734.762 270.731 735.016 271.114 735.338 271.436C735.659 271.759 736.041 272.015 736.462 272.19C736.882 272.365 737.333 272.455 737.788 272.456H756.99C757.445 272.456 757.896 272.366 758.317 272.191C758.738 272.017 759.12 271.761 759.442 271.438C759.763 271.115 760.018 270.732 760.191 270.311C760.365 269.89 760.453 269.438 760.452 268.983V265.735H761.05C761.054 263.772 760.671 261.827 759.922 260.012C759.173 258.196 758.074 256.547 756.687 255.157C755.3 253.767 753.653 252.664 751.839 251.911C750.026 251.158 748.082 250.77 746.118 250.77Z" fill="#FEF1E4"></path><path d="M726.888 266.656L726.939 287.225H724.816L722.195 269.034L712.928 286.513L711.262 284.734L718.089 267.204L726.888 266.656Z" fill="white"></path><path d="M996.987 269.695H982.846V276.89H996.987V269.695Z" fill="#FEF8F2"></path><path d="M1010.15 260.955H996.008V268.15H1010.15V260.955Z" fill="#FEF8F2"></path><path d="M1141.1 154.586H1126.96V161.781H1141.1V154.586Z" fill="#FEF8F2"></path><path d="M1269.25 262.043H1255.11V269.238H1269.25V262.043Z" fill="#FEF8F2"></path><path d="M1219.86 200.568H1205.72V207.763H1219.86V200.568Z" fill="#FEF8F2"></path><path d="M450.366 250.827L452.619 242.818L456.041 244.468L454.308 250.047L454.409 256.903L459.549 256.886L459.21 245.586L457.775 238.989L453.438 237.199L448.016 246.094L447.773 255.836L448.011 256.92L452.551 256.909L450.366 250.827Z" fill="#FEF1E4"></path><path d="M450.281 249.838L453.421 242.818L456.697 244.468L454.042 249.053L455.132 256.903L460.046 256.886L459.724 245.586L458.351 238.989L454.206 237.199L449.027 246.094L449.383 255.836L449.609 256.92L453.359 256.909L450.281 249.838Z" fill="#FEF1E4"></path><path fill-rule="evenodd" clip-rule="evenodd" d="M118.96 224.857C123.306 224.856 127.554 226.143 131.168 228.556C134.783 230.969 137.6 234.4 139.265 238.414C140.929 242.429 141.365 246.846 140.519 251.109C139.672 255.371 137.58 259.287 134.508 262.361C131.436 265.434 127.521 267.528 123.259 268.376C118.996 269.225 114.578 268.79 110.563 267.128C106.548 265.465 103.116 262.649 100.701 259.036C98.2868 255.422 96.998 251.174 96.998 246.828C96.998 241.003 99.3115 235.416 103.43 231.296C107.548 227.176 113.134 224.86 118.96 224.857Z" fill="#FEF1E4"></path><path fill-rule="evenodd" clip-rule="evenodd" d="M116.611 227.162C119.938 227.162 123.191 228.149 125.957 229.997C128.724 231.846 130.88 234.473 132.153 237.548C133.427 240.622 133.76 244.004 133.111 247.268C132.462 250.531 130.859 253.529 128.507 255.882C126.154 258.234 123.156 259.837 119.893 260.486C116.629 261.135 113.247 260.802 110.173 259.528C107.098 258.255 104.471 256.099 102.622 253.332C100.774 250.566 99.7871 247.313 99.7871 243.986C99.7871 239.524 101.56 235.245 104.715 232.09C107.87 228.935 112.149 227.162 116.611 227.162Z" fill="white"></path><path d="M122.882 249.729C122.979 249.632 123.094 249.555 123.22 249.503C123.346 249.451 123.482 249.424 123.619 249.424C123.756 249.424 123.891 249.451 124.018 249.503C124.144 249.555 124.259 249.632 124.355 249.729C124.55 249.927 124.658 250.193 124.658 250.47C124.658 250.748 124.55 251.014 124.355 251.212L120.009 255.558V267.722C125.47 267.45 130.608 265.053 134.328 261.045C138.047 257.037 140.052 251.734 139.916 246.268C139.779 240.801 137.512 235.605 133.598 231.787C129.683 227.969 124.432 225.832 118.964 225.832C113.496 225.832 108.245 227.969 104.33 231.787C100.416 235.605 98.149 240.801 98.0126 246.268C97.8762 251.734 99.8815 257.037 103.601 261.045C107.32 265.053 112.458 267.45 117.919 267.722V262.483L109.972 254.536C109.875 254.439 109.797 254.324 109.745 254.198C109.692 254.071 109.664 253.935 109.664 253.798C109.663 253.661 109.69 253.525 109.742 253.398C109.794 253.271 109.871 253.155 109.968 253.058C110.064 252.961 110.179 252.883 110.306 252.83C110.433 252.777 110.568 252.75 110.706 252.75C110.843 252.749 110.979 252.776 111.106 252.828C111.233 252.88 111.348 252.957 111.446 253.053L117.891 259.499V246.801C117.878 246.656 117.894 246.509 117.941 246.37C117.987 246.232 118.062 246.104 118.16 245.996C118.259 245.888 118.378 245.802 118.512 245.743C118.646 245.684 118.79 245.653 118.936 245.653C119.083 245.653 119.227 245.684 119.361 245.743C119.494 245.802 119.614 245.888 119.713 245.996C119.811 246.104 119.886 246.232 119.932 246.37C119.978 246.509 119.995 246.656 119.982 246.801V252.584L122.855 249.702L122.882 249.729ZM120.009 269.812V286.507C120.023 286.652 120.006 286.799 119.96 286.938C119.913 287.076 119.839 287.204 119.74 287.312C119.642 287.42 119.522 287.506 119.388 287.565C119.255 287.624 119.11 287.655 118.964 287.655C118.818 287.655 118.673 287.624 118.54 287.565C118.406 287.506 118.286 287.42 118.188 287.312C118.089 287.204 118.015 287.076 117.968 286.938C117.922 286.799 117.905 286.652 117.919 286.507V269.812C111.91 269.539 106.247 266.925 102.141 262.53C98.0353 258.134 95.8127 252.306 95.9493 246.293C96.0859 240.279 98.5707 234.558 102.872 230.354C107.173 226.149 112.949 223.795 118.964 223.795C124.979 223.795 130.755 226.149 135.056 230.354C139.357 234.558 141.842 240.279 141.979 246.293C142.115 252.306 139.893 258.134 135.787 262.53C131.681 266.925 126.018 269.539 120.009 269.812Z" fill="#1A2B56"></path><path fill-rule="evenodd" clip-rule="evenodd" d="M1298.5 224.857C1302.85 224.856 1307.1 226.143 1310.71 228.556C1314.33 230.969 1317.15 234.4 1318.81 238.414C1320.47 242.429 1320.91 246.846 1320.06 251.109C1319.22 255.371 1317.13 259.287 1314.05 262.361C1310.98 265.434 1307.07 267.528 1302.8 268.376C1298.54 269.225 1294.12 268.79 1290.11 267.128C1286.09 265.465 1282.66 262.649 1280.25 259.036C1277.83 255.422 1276.54 251.174 1276.54 246.828C1276.54 241.003 1278.86 235.416 1282.97 231.296C1287.09 227.176 1292.68 224.86 1298.5 224.857Z" fill="#FEF1E4"></path><path fill-rule="evenodd" clip-rule="evenodd" d="M1296.16 227.162C1299.48 227.162 1302.74 228.149 1305.5 229.997C1308.27 231.846 1310.43 234.473 1311.7 237.548C1312.97 240.622 1313.3 244.004 1312.66 247.268C1312.01 250.531 1310.4 253.529 1308.05 255.882C1305.7 258.234 1302.7 259.837 1299.44 260.486C1296.17 261.135 1292.79 260.802 1289.72 259.528C1286.64 258.255 1284.02 256.099 1282.17 253.332C1280.32 250.566 1279.33 247.313 1279.33 243.986C1279.33 239.524 1281.1 235.245 1284.26 232.09C1287.41 228.935 1291.69 227.162 1296.16 227.162Z" fill="white"></path><path d="M1302.43 249.729C1302.52 249.632 1302.64 249.555 1302.76 249.503C1302.89 249.451 1303.03 249.424 1303.16 249.424C1303.3 249.424 1303.44 249.451 1303.56 249.503C1303.69 249.555 1303.8 249.632 1303.9 249.729C1304.09 249.927 1304.2 250.193 1304.2 250.47C1304.2 250.748 1304.09 251.014 1303.9 251.212L1299.55 255.558V267.722C1305.02 267.45 1310.15 265.053 1313.87 261.045C1317.59 257.037 1319.6 251.734 1319.46 246.268C1319.32 240.801 1317.06 235.605 1313.14 231.787C1309.23 227.969 1303.98 225.832 1298.51 225.832C1293.04 225.832 1287.79 227.969 1283.88 231.787C1279.96 235.605 1277.69 240.801 1277.56 246.268C1277.42 251.734 1279.43 257.037 1283.15 261.045C1286.86 265.053 1292 267.45 1297.46 267.722V262.483L1289.52 254.536C1289.42 254.439 1289.34 254.324 1289.29 254.198C1289.24 254.071 1289.21 253.935 1289.21 253.798C1289.21 253.661 1289.23 253.525 1289.29 253.398C1289.34 253.271 1289.42 253.155 1289.51 253.058C1289.61 252.961 1289.72 252.883 1289.85 252.83C1289.98 252.777 1290.11 252.75 1290.25 252.75C1290.39 252.749 1290.52 252.776 1290.65 252.828C1290.78 252.88 1290.89 252.957 1290.99 253.053L1297.44 259.499V246.801C1297.42 246.656 1297.44 246.509 1297.49 246.37C1297.53 246.232 1297.61 246.104 1297.71 245.996C1297.8 245.888 1297.92 245.802 1298.06 245.743C1298.19 245.684 1298.34 245.653 1298.48 245.653C1298.63 245.653 1298.77 245.684 1298.91 245.743C1299.04 245.802 1299.16 245.888 1299.26 245.996C1299.36 246.104 1299.43 246.232 1299.48 246.37C1299.52 246.509 1299.54 246.656 1299.53 246.801V252.584L1302.4 249.702L1302.43 249.729ZM1299.55 269.812V286.507C1299.57 286.652 1299.55 286.799 1299.5 286.938C1299.46 287.076 1299.38 287.204 1299.29 287.312C1299.19 287.42 1299.07 287.506 1298.93 287.565C1298.8 287.624 1298.66 287.655 1298.51 287.655C1298.36 287.655 1298.22 287.624 1298.08 287.565C1297.95 287.506 1297.83 287.42 1297.73 287.312C1297.63 287.204 1297.56 287.076 1297.51 286.938C1297.47 286.799 1297.45 286.652 1297.46 286.507V269.812C1291.46 269.539 1285.79 266.925 1281.69 262.53C1277.58 258.134 1275.36 252.306 1275.49 246.293C1275.63 240.279 1278.12 234.558 1282.42 230.354C1286.72 226.149 1292.49 223.795 1298.51 223.795C1304.52 223.795 1310.3 226.149 1314.6 230.354C1318.9 234.558 1321.39 240.279 1321.52 246.293C1321.66 252.306 1319.44 258.134 1315.33 262.53C1311.23 266.925 1305.56 269.539 1299.55 269.812Z" fill="#1A2B56"></path><circle cx="743" cy="284" r="3" fill="white"></circle><circle cx="755.5" cy="284.5" r="3.5" fill="white"></circle><path d="M-67.998 287.004V289.004L1446 289.004V287.004L-67.998 287.004Z" fill="#1A2B56"></path><path d="M327.01 281.491H256.613V177.034L327.01 176.854V179.293H325.033V178.836L258.59 179.005V279.514H325.033V192.604H327.01V281.491Z" fill="#1A2B56"></path><path d="M259 282H148V177.181L259 177V282ZM149.982 280.017H257.018V179.006L149.982 179.181V280.017Z" fill="#1A2B56"></path><path d="M224.955 257.19H178.877V201.811H224.955V257.19ZM180.854 255.213H222.978V203.787H180.854V255.213Z" fill="#1A2B56"></path><path d="M313.354 242.11H270.607V209.18H313.354V242.11ZM272.584 240.134H311.377V211.156H272.584V240.134Z" fill="#1A2B56"></path><path d="M328.285 178.831H268.003V173.183L223.568 135.486L247.085 115.906H336.016L368.484 145.561L328.285 178.831ZM269.991 176.854H327.596L365.491 145.488L335.271 117.883H247.796L226.641 135.503L269.991 172.268V176.854Z" fill="#1A2B56"></path><path d="M438.029 281.491H325.033V191.752H438.029V281.491ZM327.032 279.514H436.029V193.729H327.032V279.514Z" fill="#1A2B56"></path><path d="M448.719 193.728H314.986V187.273L315.342 186.974L381.853 131.928L448.719 187.273V193.728ZM316.963 191.752H446.76V188.205L381.87 134.497L316.98 188.205L316.963 191.752Z" fill="#1A2B56"></path><path d="M269.991 178.83H136.359V172.183L203.226 115.635L269.991 172.268V178.83ZM138.347 176.854H268.014V173.189L203.237 118.227L138.336 173.098L138.347 176.854Z" fill="#1A2B56"></path><path d="M401.487 281.462H362.197V236.248H401.487V281.462ZM364.174 279.485H399.51V238.225H364.174V279.485Z" fill="#1A2B56"></path><path d="M396.141 281.494H367.615V241.668H396.141V281.494ZM369.598 279.518H394.17V243.645H369.592L369.598 279.518Z" fill="#1A2B56"></path><path d="M413.44 281.465H407.51V231.547H413.44V281.465ZM409.486 279.489H411.463V233.524H409.486V279.489Z" fill="#1A2B56"></path><path d="M355.869 281.465H349.939V231.547H355.869V281.465ZM351.916 279.489H353.893V233.524H351.916V279.489Z" fill="#1A2B56"></path><path d="M417.299 233.523H346.338V227.429L358.418 214.615H405.292L417.299 227.458V233.523ZM348.315 231.547H415.322V228.26L404.434 216.614H359.254L348.315 228.22V231.547Z" fill="#1A2B56"></path><path d="M259 288.998H137V279.998H259V288.998ZM138.989 286.937H257.011V282.06H138.989V286.937Z" fill="#1A2B56"></path><path d="M326.813 287.153H324.836V279.512H444.767V281.488H326.813V287.153Z" fill="#1A2B56"></path><path d="M258.59 280.498H256.613V287.156H258.59V280.498Z" fill="#1A2B56"></path><path d="M194.844 202.799H192.867V256.507H194.844V202.799Z" fill="#1A2B56"></path><path d="M210.268 202.799H208.291V256.507H210.268V202.799Z" fill="#1A2B56"></path><path d="M223.965 219.697H179.863V221.674H223.965V219.697Z" fill="#1A2B56"></path><path d="M292.701 210.203H290.725V240.858H292.701V210.203Z" fill="#1A2B56"></path><path d="M312.368 222.594H291.715V224.57H312.368V222.594Z" fill="#1A2B56"></path><path d="M333.895 171.652H137.35V173.629H333.895V171.652Z" fill="#1A2B56"></path><path d="M447.731 186.748H315.975V188.725H447.731V186.748Z" fill="#1A2B56"></path><path d="M416.311 226.836H347.326V228.813H416.311V226.836Z" fill="#1A2B56"></path><path d="M1251.52 179.67H1212.32V181.647H1251.52V179.67Z" fill="#1A2B56"></path><path d="M1239.23 168.699H1237.25V200.133H1239.23V168.699Z" fill="#1A2B56"></path><path d="M1226.5 168.699H1224.52V200.133H1226.5V168.699Z" fill="#1A2B56"></path><path d="M1251.52 232.584H1212.32V234.561H1251.52V232.584Z" fill="#1A2B56"></path><path d="M1239.23 221.611H1237.25V253.045H1239.23V221.611Z" fill="#1A2B56"></path><path d="M1226.5 221.611H1224.52V253.045H1226.5V221.611Z" fill="#1A2B56"></path><path d="M1186.25 232.584H1147.05V234.561H1186.25V232.584Z" fill="#1A2B56"></path><path d="M1173.97 221.611H1171.99V253.045H1173.97V221.611Z" fill="#1A2B56"></path><path d="M1161.24 221.611H1159.26V253.045H1161.24V221.611Z" fill="#1A2B56"></path><path d="M1186.25 179.789H1147.05V181.766H1186.25V179.789Z" fill="#1A2B56"></path><path d="M1173.97 168.824H1171.99V200.258H1173.97V168.824Z" fill="#1A2B56"></path><path d="M1161.24 168.824H1159.26V200.258H1161.24V168.824Z" fill="#1A2B56"></path><path d="M1270.21 278.977H1126.01V139.117L1198.36 95.6309L1198.88 95.9697L1270.21 142.771V278.977ZM1127.99 277.001H1268.23V143.866L1198.31 97.9859L1127.99 140.246V277.001Z" fill="#1A2B56"></path><path d="M1279.53 151.278L1198.31 97.9878L1116.71 147.025L1112.24 140.965L1198.24 88.7598L1283.87 145.331L1279.53 151.278ZM1198.36 95.6328L1198.88 95.9717L1279.07 148.573L1281.08 145.828L1198.19 91.1148L1115.11 141.547L1117.23 144.416L1198.36 95.6328Z" fill="#1A2B56"></path><path d="M1187.16 253.66H1146.06V220.498H1187.16V253.66ZM1148.04 251.684H1185.18V222.475H1148.04V251.684Z" fill="#1A2B56"></path><path d="M1252.34 253.908H1211.25V220.746H1252.34V253.908ZM1213.23 251.932H1250.36V222.7H1213.23V251.932Z" fill="#1A2B56"></path><path d="M1187.16 200.998H1146.06V167.83H1187.16V200.998ZM1148.04 199.021H1185.18V169.807H1148.04V199.021Z" fill="#1A2B56"></path><path d="M1252.34 201.244H1211.25V168.082H1252.34V201.244ZM1213.23 199.268H1250.36V170.059H1213.23V199.268Z" fill="#1A2B56"></path><path d="M1275.46 288.826H1120.72V277H1275.46V288.826ZM1122.67 286.849H1273.45V278.977H1122.67V286.849Z" fill="#1A2B56"></path><path d="M1198.19 151.653C1195.3 151.656 1192.47 150.803 1190.07 149.201C1187.67 147.599 1185.79 145.32 1184.69 142.652C1183.58 139.985 1183.29 137.049 1183.85 134.216C1184.41 131.383 1185.8 128.78 1187.84 126.737C1189.88 124.694 1192.48 123.302 1195.31 122.737C1198.15 122.172 1201.08 122.46 1203.75 123.565C1206.42 124.669 1208.7 126.54 1210.31 128.941C1211.91 131.343 1212.77 134.166 1212.77 137.054C1212.76 140.921 1211.23 144.63 1208.49 147.366C1205.76 150.102 1202.05 151.644 1198.19 151.653ZM1198.19 124.432C1195.69 124.432 1193.25 125.172 1191.17 126.559C1189.1 127.946 1187.48 129.917 1186.52 132.224C1185.57 134.53 1185.32 137.068 1185.81 139.516C1186.29 141.965 1187.5 144.214 1189.26 145.979C1191.03 147.744 1193.28 148.947 1195.72 149.434C1198.17 149.921 1200.71 149.671 1203.02 148.715C1205.32 147.76 1207.29 146.142 1208.68 144.066C1210.07 141.991 1210.81 139.55 1210.81 137.054C1210.81 133.707 1209.47 130.498 1207.11 128.132C1204.74 125.765 1201.53 124.435 1198.19 124.432Z" fill="#1A2B56"></path><path d="M1044.12 179.594H1004.92V181.57H1044.12V179.594Z" fill="#1A2B56"></path><path d="M1031.83 168.629H1029.85V200.063H1031.83V168.629Z" fill="#1A2B56"></path><path d="M1019.09 168.629H1017.12V200.063H1019.09V168.629Z" fill="#1A2B56"></path><path d="M1044.12 232.504H1004.92V234.481H1044.12V232.504Z" fill="#1A2B56"></path><path d="M1031.83 221.531H1029.85V252.965H1031.83V221.531Z" fill="#1A2B56"></path><path d="M1019.09 221.531H1017.12V252.965H1019.09V221.531Z" fill="#1A2B56"></path><path d="M978.852 179.721H939.652V181.697H978.852V179.721Z" fill="#1A2B56"></path><path d="M966.566 168.746H964.59V200.18H966.566V168.746Z" fill="#1A2B56"></path><path d="M953.834 168.746H951.857V200.18H953.834V168.746Z" fill="#1A2B56"></path><path d="M1122.64 288.85H1066.06V276.99H1122.64V288.85ZM1068.03 286.873H1120.67V278.967H1068.03V286.873Z" fill="#1A2B56"></path><path d="M1127.99 278.898H1061.04V201.104H1127.99V278.898ZM1063.01 276.916H1126.01V203.08H1063.01V276.916Z" fill="#1A2B56"></path><path d="M1127.99 203.08H1060.85V193.445H1128L1127.99 203.08ZM1062.81 201.103H1126.01V195.422H1062.81V201.103Z" fill="#1A2B56"></path><path d="M1113.13 278.801H1076.26V232.621H1113.13V278.801ZM1078.23 276.824H1111.15V234.598H1078.23V276.824Z" fill="#1A2B56"></path><path d="M1105.75 278.901H1083.72V240.074H1105.75V278.901ZM1085.7 276.919H1103.77V242.051H1085.7V276.919Z" fill="#1A2B56"></path><path d="M1063 279H949.761V277.027H1061.01V140.443L990.721 98.3003L919.988 140.494V277.027H937.194V279H918V139.378L990.727 96L1063 139.327V279Z" fill="#1A2B56"></path><path d="M1072.15 146.944L990.928 97.8893L909.299 146.932L904.832 140.878L990.821 88.6895L991.335 89.0057L1076.49 141.002L1072.15 146.944ZM907.701 141.454L909.819 144.317L990.928 95.5851L1071.61 144.312L1073.62 141.573L990.821 91.0049L907.701 141.454Z" fill="#1A2B56"></path><path d="M1044.94 253.83H1003.84V220.668H1044.94V253.83ZM1005.82 251.854H1042.96V222.645H1005.82V251.854Z" fill="#1A2B56"></path><path d="M979.753 200.918H938.668V167.756H979.753V200.918ZM940.645 198.941H977.777V169.732H940.645V198.941Z" fill="#1A2B56"></path><path d="M978.852 231.998H939.652V233.975H978.852V231.998Z" fill="#1A2B56"></path><path d="M966.566 221.023H964.59V252.457H966.566V221.023Z" fill="#1A2B56"></path><path d="M953.834 221.023H951.857V252.457H953.834V221.023Z" fill="#1A2B56"></path><path d="M979.753 253.197H938.668V220.035H979.753V253.197ZM940.645 251.221H977.777V222.012H940.645V251.221Z" fill="#1A2B56"></path><path d="M1044.94 201.17H1003.84V168.008H1044.94V201.17ZM1005.82 199.193H1042.96V169.984H1005.82V199.193Z" fill="#1A2B56"></path><path d="M1067.78 287.934H1065.8V278.977H913.977V287.934H912V277H1067.78V287.934Z" fill="#1A2B56"></path><path d="M990.784 151.577C987.897 151.577 985.075 150.72 982.674 149.116C980.273 147.512 978.402 145.232 977.297 142.564C976.192 139.897 975.903 136.962 976.466 134.13C977.029 131.298 978.42 128.696 980.462 126.655C982.503 124.613 985.104 123.223 987.936 122.659C990.768 122.096 993.703 122.385 996.371 123.49C999.039 124.595 1001.32 126.466 1002.92 128.867C1004.53 131.268 1005.38 134.09 1005.38 136.978C1005.38 140.848 1003.84 144.559 1001.1 147.296C998.366 150.033 994.655 151.572 990.784 151.577ZM990.784 124.356C988.288 124.356 985.848 125.096 983.772 126.483C981.696 127.87 980.078 129.841 979.123 132.147C978.168 134.454 977.918 136.992 978.405 139.44C978.892 141.889 980.094 144.138 981.859 145.903C983.624 147.668 985.874 148.87 988.322 149.357C990.77 149.844 993.308 149.595 995.615 148.639C997.921 147.684 999.892 146.066 1001.28 143.99C1002.67 141.915 1003.41 139.474 1003.41 136.978C1003.4 133.632 1002.07 130.424 999.705 128.057C997.339 125.691 994.131 124.36 990.784 124.356Z" fill="#1A2B56"></path><path d="M688.989 281H594L594.13 199.933H597.109L644.479 144L681.327 190.791L679.764 192.01L644.422 147.126L598.032 201.908H596.107L595.988 279.025H687.007L687.018 201.169H689L688.989 281Z" fill="#1A2B56"></path><path d="M695.636 202.238L687.577 202.221L679.806 192.073L644.588 147.147L598.323 202.029H476.467L472.146 197.709L523.324 137.738H543.509V139.715H524.234L474.835 197.602L477.28 200.053H597.403L644.644 144.018L681.37 190.864L688.554 200.245L691.598 200.25L679.794 185.008L644.243 139.709H581.573V137.732H645.203L681.353 183.794L695.636 202.238Z" fill="#1A2B56"></path><path d="M559.486 281.121H528.99L528.82 229.26H559.317L559.486 281.121ZM530.989 279.144H557.532L557.374 231.236H530.831L530.989 279.144Z" fill="#1A2B56"></path><path d="M523.303 281.12H516.227L516.283 217.535H561.463V224.606H523.303V281.12ZM518.181 279.144H521.309V222.629H559.453V219.512H518.226L518.181 279.144Z" fill="#1A2B56"></path><path d="M561.442 224.685H553.117V217.535H561.442V224.685ZM555.094 222.708H559.465V219.512H555.094V222.708Z" fill="#1A2B56"></path><path d="M699 289H609V279H699V289ZM610.972 286.93H697.028V281.07H610.972V286.93Z" fill="#1A2B56"></path><path d="M611 289H471V279H611V289ZM472.997 286.93H609.037V281.07H472.98L472.997 286.93Z" fill="#1A2B56"></path><path d="M663.624 269.248H622.205V205.629H663.624V269.248ZM624.182 267.272H661.647V207.611H624.182V267.272Z" fill="#1A2B56"></path><path d="M560.89 180.554H539.943V159.031H560.89V180.554ZM541.92 178.577H558.913V161.014H541.92V178.577Z" fill="#1A2B56"></path><path d="M596.075 164.155H567.098L550.675 145.665L536.629 161.365V164.121H528.463L524.193 159.886L524.798 159.191L547.388 133.179L547.681 132.834H577.828L600.587 159.462L596.075 164.155ZM567.99 162.179H595.233L597.922 159.394L576.924 134.822H548.591L526.899 159.79L529.276 162.145H534.641V160.614L550.675 142.695L567.99 162.179Z" fill="#1A2B56"></path><path d="M567.848 186.23H534.641V160.613L550.674 142.693L567.989 162.177L588.885 162.143L567.848 186.23ZM536.617 184.253H566.95L584.559 164.126H567.12L550.674 145.664L536.629 161.364L536.617 184.253Z" fill="#1A2B56"></path><path d="M568.529 163.164H566.553V185.24H568.529V163.164Z" fill="#1A2B56"></path><path d="M529.623 163.77L528.109 162.499L550.383 135.973L570.72 158.382H599.257V160.359H569.844L550.44 138.977L529.623 163.77Z" fill="#1A2B56"></path><path d="M595.88 198.637H473.492V196.66H594.959L643.968 138.084L645.482 139.349L595.88 198.637Z" fill="#1A2B56"></path><path d="M636.996 207.074H635.02V268.146H636.996V207.074Z" fill="#1A2B56"></path><path d="M650.816 207.074H648.84V268.146H650.816V207.074Z" fill="#1A2B56"></path><path d="M662.608 224.82H623.166V226.797H662.608V224.82Z" fill="#1A2B56"></path><path d="M662.608 246.484H623.166V248.461H662.608V246.484Z" fill="#1A2B56"></path><path d="M807.387 275.434H772.463V280.274H807.387V275.434Z" fill="white"></path><path d="M845.651 231.063H774.955V228.437L810.314 205.887L845.651 228.437V231.063Z" fill="white"></path><path d="M845.651 231.208H774.955V228.576L810.314 206.031L845.651 228.576V231.208Z" fill="white"></path><path d="M804.552 273.257L802.914 272.127C806.156 267.332 813.475 264.221 821.551 264.221C828.085 264.221 834.263 266.271 838.075 269.693L836.754 271.167C833.292 268.055 827.611 266.197 821.551 266.197C814.113 266.231 807.432 268.993 804.552 273.257Z" fill="#1A2B56"></path><path d="M777.228 276.533L775.957 275.02C779.346 272.188 783.3 270.111 787.554 268.926C791.808 267.741 796.266 267.475 800.631 268.147L800.332 270.101C798.851 269.874 797.356 269.761 795.859 269.762C789.047 269.767 782.453 272.163 777.228 276.533Z" fill="#1A2B56"></path><path d="M808.596 281.724H771.695V274.586H808.596V281.724ZM773.672 279.748H806.62V276.563H773.672V279.748Z" fill="#1A2B56"></path><path d="M848.915 281.724H806.621V274.586H848.915V281.724ZM808.598 279.748H846.939V276.563H808.598V279.748Z" fill="#1A2B56"></path><path d="M811.093 289.134H774.881V279.748H811.076L811.093 289.134ZM776.874 287.158H809.116V281.725H776.874V287.158Z" fill="#1A2B56"></path><path d="M845.113 289.134H808.918V279.748H845.113V289.134ZM810.895 287.158H843.136V281.725H810.895V287.158Z" fill="#1A2B56"></path><path d="M846.857 232.202H774.162V228.046L810.566 204.801L811.131 205.236L846.885 228.046L846.857 232.202ZM776.139 230.226H844.909V229.13L810.521 207.195L776.167 229.13L776.139 230.226Z" fill="#1A2B56"></path><path d="M811.522 236.736H809.545V263.251H811.522V236.736Z" fill="#1A2B56"></path><path d="M819.774 231.214H817.797V228.356L809.586 206.365L811.438 205.676L819.774 227.995V231.214Z" fill="#1A2B56"></path><path d="M777.873 237.724C777.385 237.724 776.903 237.628 776.453 237.441C776.002 237.255 775.593 236.981 775.249 236.637C774.904 236.292 774.631 235.883 774.445 235.433C774.258 234.983 774.162 234.5 774.162 234.013V231.189H776.139V234.013C776.125 234.249 776.16 234.485 776.241 234.706C776.322 234.928 776.447 235.131 776.609 235.303C776.771 235.474 776.967 235.611 777.183 235.704C777.4 235.798 777.634 235.846 777.87 235.846C778.106 235.846 778.339 235.798 778.556 235.704C778.773 235.611 778.968 235.474 779.13 235.303C779.292 235.131 779.418 234.928 779.498 234.706C779.579 234.485 779.614 234.249 779.601 234.013H781.577C781.577 234.996 781.187 235.939 780.493 236.635C779.798 237.331 778.856 237.722 777.873 237.724Z" fill="#1A2B56"></path><path d="M783.312 237.722C782.328 237.721 781.386 237.329 780.69 236.634C779.994 235.938 779.603 234.995 779.602 234.012H781.578C781.565 234.247 781.6 234.483 781.68 234.705C781.761 234.927 781.887 235.13 782.049 235.301C782.211 235.473 782.406 235.609 782.623 235.703C782.84 235.796 783.073 235.844 783.309 235.844C783.545 235.844 783.779 235.796 783.996 235.703C784.212 235.609 784.408 235.473 784.57 235.301C784.732 235.13 784.857 234.927 784.938 234.705C785.019 234.483 785.054 234.247 785.04 234.012H787.017C787.017 234.995 786.627 235.938 785.932 236.633C785.238 237.329 784.295 237.721 783.312 237.722Z" fill="#1A2B56"></path><path d="M788.75 237.722C787.766 237.721 786.823 237.329 786.127 236.634C785.432 235.938 785.041 234.995 785.039 234.012H787.016C787.016 234.472 787.198 234.913 787.524 235.238C787.849 235.563 788.29 235.746 788.75 235.746C789.209 235.746 789.65 235.563 789.976 235.238C790.301 234.913 790.483 234.472 790.483 234.012H792.46C792.459 234.995 792.067 235.938 791.372 236.634C790.676 237.329 789.733 237.721 788.75 237.722Z" fill="#1A2B56"></path><path d="M794.187 237.722C793.204 237.721 792.262 237.329 791.567 236.633C790.873 235.938 790.482 234.995 790.482 234.012H792.459C792.446 234.247 792.48 234.483 792.561 234.705C792.642 234.927 792.768 235.13 792.93 235.301C793.092 235.473 793.287 235.609 793.504 235.703C793.721 235.796 793.954 235.844 794.19 235.844C794.426 235.844 794.66 235.796 794.876 235.703C795.093 235.609 795.289 235.473 795.451 235.301C795.613 235.13 795.738 234.927 795.819 234.705C795.9 234.483 795.935 234.247 795.921 234.012H797.898C797.896 234.995 797.505 235.938 796.809 236.634C796.114 237.329 795.171 237.721 794.187 237.722Z" fill="#1A2B56"></path><path d="M799.627 237.722C798.644 237.721 797.701 237.329 797.007 236.633C796.312 235.938 795.922 234.995 795.922 234.012H797.899C797.885 234.247 797.92 234.483 798.001 234.705C798.082 234.927 798.207 235.13 798.369 235.301C798.531 235.473 798.726 235.609 798.943 235.703C799.16 235.796 799.393 235.844 799.629 235.844C799.865 235.844 800.099 235.796 800.316 235.703C800.532 235.609 800.728 235.473 800.89 235.301C801.052 235.13 801.177 234.927 801.258 234.705C801.339 234.483 801.374 234.247 801.36 234.012H803.337C803.336 234.995 802.944 235.938 802.249 236.634C801.553 237.329 800.61 237.721 799.627 237.722Z" fill="#1A2B56"></path><path d="M805.07 237.722C804.086 237.721 803.143 237.329 802.448 236.634C801.752 235.938 801.361 234.995 801.359 234.012H803.336C803.323 234.247 803.357 234.483 803.438 234.705C803.519 234.927 803.644 235.13 803.806 235.301C803.969 235.473 804.164 235.609 804.381 235.703C804.597 235.796 804.831 235.844 805.067 235.844C805.303 235.844 805.536 235.796 805.753 235.703C805.97 235.609 806.165 235.473 806.327 235.301C806.489 235.13 806.615 234.927 806.696 234.705C806.777 234.483 806.811 234.247 806.798 234.012H808.774C808.774 234.995 808.384 235.938 807.69 236.633C806.995 237.329 806.053 237.721 805.07 237.722Z" fill="#1A2B56"></path><path d="M810.509 237.722C809.526 237.721 808.583 237.329 807.887 236.634C807.192 235.938 806.8 234.995 806.799 234.012H808.775C808.762 234.247 808.797 234.483 808.878 234.705C808.959 234.927 809.084 235.13 809.246 235.301C809.408 235.473 809.603 235.609 809.82 235.703C810.037 235.796 810.27 235.844 810.506 235.844C810.742 235.844 810.976 235.796 811.193 235.703C811.409 235.609 811.605 235.473 811.767 235.301C811.929 235.13 812.054 234.927 812.135 234.705C812.216 234.483 812.251 234.247 812.237 234.012H814.214C814.214 234.995 813.824 235.938 813.129 236.633C812.435 237.329 811.492 237.721 810.509 237.722Z" fill="#1A2B56"></path><path d="M815.949 237.722C814.965 237.721 814.022 237.329 813.327 236.634C812.631 235.938 812.24 234.995 812.238 234.012H814.215C814.215 234.472 814.398 234.913 814.723 235.238C815.048 235.563 815.489 235.746 815.949 235.746C816.408 235.746 816.849 235.563 817.175 235.238C817.5 234.913 817.682 234.472 817.682 234.012H819.659C819.658 234.995 819.266 235.938 818.571 236.634C817.875 237.329 816.932 237.721 815.949 237.722Z" fill="#1A2B56"></path><path d="M821.384 237.722C820.401 237.721 819.459 237.329 818.764 236.633C818.07 235.938 817.68 234.995 817.68 234.012H819.656C819.643 234.247 819.678 234.483 819.759 234.705C819.839 234.927 819.965 235.13 820.127 235.301C820.289 235.473 820.484 235.609 820.701 235.703C820.918 235.796 821.151 235.844 821.387 235.844C821.623 235.844 821.857 235.796 822.074 235.703C822.29 235.609 822.486 235.473 822.648 235.301C822.81 235.13 822.935 234.927 823.016 234.705C823.097 234.483 823.132 234.247 823.118 234.012H825.095C825.093 234.995 824.702 235.938 824.007 236.634C823.311 237.329 822.368 237.721 821.384 237.722Z" fill="#1A2B56"></path><path d="M826.838 237.722C825.854 237.721 824.912 237.329 824.218 236.633C823.523 235.938 823.133 234.995 823.133 234.012H825.109C825.096 234.247 825.131 234.483 825.212 234.705C825.293 234.927 825.418 235.13 825.58 235.301C825.742 235.473 825.937 235.609 826.154 235.703C826.371 235.796 826.604 235.844 826.84 235.844C827.076 235.844 827.31 235.796 827.527 235.703C827.743 235.609 827.939 235.473 828.101 235.301C828.263 235.13 828.388 234.927 828.469 234.705C828.55 234.483 828.585 234.247 828.571 234.012H830.548C830.546 234.995 830.155 235.938 829.46 236.634C828.764 237.329 827.821 237.721 826.838 237.722Z" fill="#1A2B56"></path><path d="M832.271 237.722C831.287 237.721 830.344 237.329 829.649 236.634C828.953 235.938 828.562 234.995 828.561 234.012H830.537C830.524 234.247 830.558 234.483 830.639 234.705C830.72 234.927 830.846 235.13 831.008 235.301C831.17 235.473 831.365 235.609 831.582 235.703C831.799 235.796 832.032 235.844 832.268 235.844C832.504 235.844 832.738 235.796 832.955 235.703C833.171 235.609 833.367 235.473 833.529 235.301C833.691 235.13 833.816 234.927 833.897 234.705C833.978 234.483 834.013 234.247 833.999 234.012H835.976C835.976 234.995 835.586 235.938 834.891 236.633C834.197 237.329 833.254 237.721 832.271 237.722Z" fill="#1A2B56"></path><path d="M837.709 237.722C836.725 237.721 835.782 237.329 835.086 236.634C834.391 235.938 834 234.995 833.998 234.012H835.975C835.961 234.247 835.996 234.483 836.077 234.705C836.158 234.927 836.283 235.13 836.445 235.301C836.607 235.473 836.803 235.609 837.019 235.703C837.236 235.796 837.47 235.844 837.706 235.844C837.942 235.844 838.175 235.796 838.392 235.703C838.609 235.609 838.804 235.473 838.966 235.301C839.128 235.13 839.254 234.927 839.335 234.705C839.415 234.483 839.45 234.247 839.437 234.012H841.413C841.413 234.995 841.023 235.938 840.329 236.633C839.634 237.329 838.692 237.721 837.709 237.722Z" fill="#1A2B56"></path><path d="M843.148 237.724C842.164 237.722 841.221 237.331 840.526 236.635C839.83 235.94 839.439 234.997 839.438 234.013H841.414C841.414 234.473 841.597 234.914 841.922 235.239C842.247 235.564 842.688 235.747 843.148 235.747C843.608 235.747 844.049 235.564 844.374 235.239C844.699 234.914 844.882 234.473 844.882 234.013V231.189H846.858V234.013C846.857 234.997 846.465 235.94 845.77 236.635C845.074 237.331 844.132 237.722 843.148 237.724Z" fill="#1A2B56"></path><path d="M895.309 286.038L885.736 272.958L884.805 269.993L886.685 269.4L887.521 272.055L896.907 284.869L895.309 286.038Z" fill="#1A2B56"></path><path d="M895.154 288.306L893.764 286.9L896.859 283.845L896.294 282.574C895.272 279.903 892.177 272.725 889.975 271.222L889.41 270.838L889.574 270.172C890.139 267.913 890.026 262.983 890.026 262.932L892.002 262.887C892.064 265.271 891.937 267.656 891.624 270.02C894.589 272.719 897.752 280.863 898.124 281.834L899.186 284.302L895.154 288.306Z" fill="#1A2B56"></path><path d="M889.423 238.661L887.294 231.494L889.185 230.93L890.467 235.244L892.901 233.239C892.616 232.061 891.977 230.997 891.072 230.19C889.185 228.772 887.785 229.958 887.728 230.009L886.424 228.524C887.339 227.722 889.739 226.717 892.258 228.614C894.421 230.246 894.957 233.324 894.98 233.454L895.07 234.019L889.423 238.661Z" fill="#1A2B56"></path><path d="M883.96 238.513C883.682 238.514 883.406 238.474 883.141 238.395C880.831 237.694 879.859 234.035 880.599 231.471C880.664 231.246 880.801 231.048 880.988 230.907C881.176 230.767 881.404 230.691 881.638 230.691V232.668C881.833 232.668 882.022 232.605 882.177 232.487C882.332 232.37 882.444 232.206 882.497 232.019C881.932 233.899 882.751 236.209 883.711 236.503C884.355 236.7 885.479 236.079 886.309 235.068L886.992 235.633L888.026 235.413L888.139 235.978L887.839 236.345C886.693 237.728 885.247 238.513 883.96 238.513Z" fill="#1A2B56"></path><path d="M886.532 237.952L886.12 235.998L884.426 232.79H881.201L880.473 231.898L880.636 231.389C881.461 228.746 884.093 227.097 886.374 227.792C886.947 227.987 887.471 228.303 887.911 228.72C888.35 229.136 888.695 229.642 888.921 230.203C889.437 231.412 889.509 232.764 889.124 234.021C888.852 234.88 888.413 235.677 887.831 236.365L886.532 237.952ZM883.144 230.813H885.629L887.154 233.705C887.187 233.62 887.216 233.53 887.244 233.445C887.487 232.638 887.443 231.772 887.12 230.994C887.006 230.695 886.831 230.424 886.605 230.198C886.379 229.973 886.108 229.797 885.809 229.684C884.985 229.401 883.878 229.842 883.138 230.785L883.144 230.813Z" fill="#1A2B56"></path><path d="M893.976 260.183L892.999 258.285L894.095 250.012L892.92 247.741L894.676 246.832L896.133 249.656L895.038 257.929L895.732 259.279L893.976 260.183Z" fill="#1A2B56"></path><path d="M873.123 257.415L872.49 255.54L874.704 254.795L879.335 249.774L880.368 247.707L882.136 248.588L880.978 250.909L875.817 256.506L873.123 257.415Z" fill="#1A2B56"></path><path d="M879.346 287.029L877.375 286.933L878.137 271.402L881.102 258.018L883.034 258.447L880.086 271.747L879.346 287.029Z" fill="#1A2B56"></path><path d="M881.915 288.597H875.488V286.62H879.938V285.491L879.984 285.35C879.984 285.254 882.937 275.574 882.807 271.734V271.321L888.912 264.883C889.443 264.23 889.828 263.472 890.042 262.658C890.288 261.735 890.311 260.768 890.109 259.834L889.635 257.852L891.561 257.395L892.035 259.388C892.296 260.569 892.282 261.794 891.996 262.969C891.709 264.144 891.156 265.237 890.38 266.165L890.341 266.21L884.767 272.089C884.699 276.206 882.248 284.514 881.875 285.768L881.915 288.597Z" fill="#1A2B56"></path><path d="M883.39 241.179L881.656 240.208L882.526 240.682L881.656 240.214C882.172 239.231 882.5 238.16 882.622 237.057L884.593 237.164C884.459 238.568 884.05 239.932 883.39 241.179Z" fill="#1A2B56"></path><path d="M879.494 259.247L880.341 248.517L879.076 245.094L881.651 240.237L883.397 241.164L881.239 245.241L882.369 248.24L881.657 257.242L890.021 257.169L887.898 245.653L890.863 246.913L891.721 247.591L892.619 246.935C891.631 244.676 889.281 240.396 886.599 239.933L885.989 239.831L885.063 236.668L886.96 236.104L887.525 238.131C891.873 239.469 894.607 246.602 894.725 246.93L894.985 247.63L891.642 250.07L890.512 249.189L892.336 259.117L879.494 259.247Z" fill="#1A2B56"></path><path d="M746.582 265.639H744.605V249.498H746.768C750.684 249.503 754.438 251.06 757.206 253.829C759.975 256.597 761.532 260.351 761.537 264.266V265.396H759.56V264.266C759.557 260.875 758.208 257.623 755.81 255.225C753.412 252.826 750.16 251.478 746.768 251.475H746.582V265.639Z" fill="#1A2B56"></path><path d="M723.398 239.515C722.314 239.471 721.273 239.074 720.434 238.385L721.625 236.81C722.489 237.465 723.319 237.696 723.884 237.454C724.839 237.053 725.347 233.625 724.505 231.541L726.341 230.801C727.397 233.421 727.064 238.261 724.647 239.272C724.251 239.435 723.827 239.518 723.398 239.515Z" fill="#1A2B56"></path><path d="M722.469 265.499L712.959 282.047L714.679 283.035L724.189 266.487L722.469 265.499Z" fill="#1A2B56"></path><path d="M713.73 288.902L709.873 285.722L711.121 282.898L716.944 267.695L718.785 268.401L712.951 283.65L712.29 285.152L714.99 287.377L713.73 288.902Z" fill="#1A2B56"></path><path d="M727.747 287.929H725.77V268.23L725.674 267.57L727.634 267.293L727.747 268.163V287.929Z" fill="#1A2B56"></path><path d="M730.071 289.036H723.791L720.928 268.179L722.887 267.914L725.514 287.059H730.071V289.036Z" fill="#1A2B56"></path><path d="M714.145 268.592L716.217 257.1L718.16 257.45L716.517 266.587L727.202 266.458L725.925 257.783L727.885 257.495L729.489 268.406L714.145 268.592Z" fill="#1A2B56"></path><path d="M716.227 258.659V257.688C716.018 248.279 716.566 245.133 717.724 242.327L719.548 243.083C718.537 245.54 718.04 248.369 718.187 256.677H725.738L725.534 255.598L725.184 249.68L726.082 247.189L723.219 242.022L722.191 238.633L724.077 238.068L725.077 241.338L728.245 246.986L727.183 249.945L727.477 255.384L728.098 258.608L716.227 258.659Z" fill="#1A2B56"></path><path d="M722.15 244.46L721.122 244.421C720.936 244.421 716.475 244.184 715.475 240.236L715.43 240.067V239.897C715.565 238.463 716.311 231.223 718.016 229.297C719.812 227.281 722.737 227.36 724.584 228.455C725.51 229.02 726.487 230.5 726.674 230.793L727.397 231.923L722.201 233.273L722.15 244.46ZM717.418 239.897C717.635 240.497 718.004 241.03 718.488 241.445C718.971 241.861 719.554 242.144 720.179 242.269L720.23 231.754L724.183 230.731C724.009 230.518 723.808 230.328 723.585 230.167C722.399 229.466 720.546 229.444 719.501 230.618C718.575 231.652 717.734 236.599 717.418 239.897Z" fill="#1A2B56"></path><path d="M757.041 273.445H737.529C736.335 273.437 735.194 272.958 734.352 272.111C733.511 271.265 733.039 270.12 733.039 268.927V264.629H761.537V268.927C761.537 270.121 761.064 271.267 760.221 272.113C759.379 272.96 758.235 273.439 757.041 273.445ZM735.016 266.628V268.949C735.016 269.616 735.28 270.256 735.751 270.728C736.223 271.201 736.862 271.467 737.529 271.468H757.041C757.709 271.468 758.35 271.203 758.822 270.73C759.295 270.258 759.56 269.617 759.56 268.949V266.622L735.016 266.628Z" fill="#1A2B56"></path><path d="M730.503 259.015L720.8 253.808L718.344 247.352L720.191 246.646L722.382 252.413L731.44 257.275L730.503 259.015Z" fill="#1A2B56"></path><path d="M751.579 271.776L743.793 281.574L745.341 282.804L753.126 273.006L751.579 271.776Z" fill="#1A2B56"></path><path d="M752.535 283.298L733.542 259.053H730.453V257.076H734.508L754.094 282.078L752.535 283.298Z" fill="#1A2B56"></path><path d="M755.52 288.823C754.626 288.823 753.753 288.558 753.01 288.062C752.267 287.565 751.688 286.86 751.346 286.034C751.004 285.209 750.914 284.3 751.089 283.424C751.263 282.547 751.693 281.742 752.325 281.11C752.957 280.479 753.762 280.048 754.639 279.874C755.515 279.7 756.423 279.789 757.249 280.131C758.074 280.473 758.78 281.052 759.276 281.795C759.773 282.538 760.038 283.412 760.038 284.305C760.038 285.503 759.562 286.653 758.715 287.5C757.867 288.347 756.718 288.823 755.52 288.823ZM755.52 281.769C755.017 281.769 754.525 281.919 754.107 282.198C753.689 282.478 753.364 282.875 753.172 283.34C752.979 283.804 752.929 284.316 753.028 284.809C753.126 285.302 753.369 285.755 753.725 286.11C754.081 286.465 754.534 286.707 755.028 286.804C755.521 286.901 756.032 286.85 756.496 286.657C756.961 286.464 757.357 286.137 757.636 285.719C757.914 285.3 758.062 284.808 758.061 284.305C758.06 283.632 757.791 282.987 757.315 282.512C756.838 282.036 756.193 281.769 755.52 281.769Z" fill="#1A2B56"></path><path d="M743.069 288.823C742.175 288.823 741.302 288.558 740.559 288.062C739.816 287.565 739.237 286.86 738.895 286.034C738.553 285.209 738.463 284.3 738.638 283.424C738.812 282.547 739.242 281.742 739.874 281.11C740.506 280.479 741.311 280.048 742.187 279.874C743.064 279.7 743.972 279.789 744.798 280.131C745.623 280.473 746.329 281.052 746.826 281.795C747.322 282.538 747.587 283.412 747.587 284.305C747.587 285.503 747.111 286.653 746.264 287.5C745.416 288.347 744.267 288.823 743.069 288.823ZM743.069 281.769C742.566 281.768 742.074 281.916 741.655 282.195C741.236 282.474 740.909 282.871 740.716 283.336C740.523 283.8 740.472 284.312 740.57 284.805C740.668 285.299 740.91 285.752 741.266 286.108C741.622 286.464 742.075 286.706 742.569 286.804C743.062 286.901 743.574 286.851 744.038 286.658C744.503 286.465 744.9 286.138 745.179 285.719C745.458 285.3 745.606 284.808 745.605 284.305C745.603 283.633 745.336 282.989 744.86 282.514C744.385 282.038 743.741 281.771 743.069 281.769Z" fill="#1A2B56"></path><path d="M445.353 286.332L443.721 285.203L453.254 271.225C453.254 271.225 453.994 270.096 454.869 268.48L456.603 269.435C455.688 271.095 454.908 272.259 454.908 272.321L445.353 286.332Z" fill="#1A2B56"></path><path d="M445.145 288.553L441.723 284.363L449.019 269.521C448.454 266.839 448.573 262.123 448.579 261.914L450.555 261.959C450.555 262.01 450.442 267.042 451.018 269.408L451.109 269.758L444.078 284.092L446.698 287.3L445.145 288.553Z" fill="#1A2B56"></path><path d="M461.922 287.178L461.131 269.67L458.336 256.929L460.267 256.506L463.102 269.501L463.899 287.087L461.922 287.178Z" fill="#1A2B56"></path><path d="M465.537 288.68H459.89L457.066 271.354L450.244 265.142C449.491 264.247 448.943 263.199 448.64 262.069C448.297 260.804 448.266 259.475 448.55 258.195L448.911 256.682L450.831 257.139L450.475 258.636C450.265 259.601 450.29 260.602 450.549 261.555C450.775 262.382 451.173 263.152 451.718 263.814L458.901 270.332L461.59 286.709H465.588L465.537 288.68Z" fill="#1A2B56"></path><path d="M447.08 257.118L446.989 256.232C445.86 245.688 452.038 237.352 452.591 236.635L454.178 234.139L455.873 235.2L454.178 237.81C454.116 237.889 448.26 245.552 448.875 255.142H452.106V257.118H447.08Z" fill="#1A2B56"></path><path d="M457.823 237.023C457.091 236.967 456.378 236.763 455.728 236.423C455.078 236.083 454.503 235.615 454.039 235.047C453.917 234.983 453.809 234.895 453.722 234.788C453.636 234.681 453.572 234.557 453.536 234.425C453.499 234.292 453.491 234.153 453.51 234.017C453.53 233.881 453.578 233.75 453.65 233.633C453.723 233.516 453.818 233.415 453.932 233.337C454.045 233.259 454.173 233.205 454.308 233.179C454.444 233.152 454.583 233.154 454.717 233.184C454.851 233.214 454.978 233.271 455.089 233.353C455.216 233.421 455.331 233.511 455.428 233.618C456.309 234.623 457.472 235.211 458.128 234.973C458.568 234.815 458.975 234.188 459.189 233.336C459.435 232.371 459.4 231.356 459.088 230.41C458.96 230.114 458.811 229.827 458.642 229.552L460.336 228.535C460.572 228.919 460.776 229.321 460.946 229.738C461.394 231.053 461.451 232.469 461.109 233.816C460.72 235.346 459.878 236.442 458.794 236.831C458.484 236.952 458.155 237.017 457.823 237.023Z" fill="#1A2B56"></path><path d="M453.502 263.004L452.768 261.169L454.631 260.423L453.118 250.393L455.19 243.695L457.082 244.283L455.14 250.546L456.817 261.677L453.502 263.004Z" fill="#1A2B56"></path><path d="M453.175 262.178L449.707 250.476L451.96 242.553L453.858 243.089L451.768 250.465L455.072 261.613L453.175 262.178Z" fill="#1A2B56"></path><path d="M453.83 234.952L453.632 234.799C452.601 233.955 451.91 232.768 451.685 231.456C451.46 230.143 451.716 228.794 452.406 227.655L452.452 227.587C452.941 226.873 453.613 226.303 454.397 225.937C455.182 225.57 456.05 225.421 456.912 225.505C457.774 225.589 458.597 225.902 459.297 226.412C459.996 226.922 460.546 227.611 460.889 228.406L461.324 229.383L456.947 230.947L456.281 229.089L458.483 228.299C458.011 227.809 457.372 227.513 456.693 227.469C456.199 227.421 455.702 227.505 455.251 227.711C454.799 227.918 454.411 228.239 454.123 228.643L453.248 228.18L454.084 228.705C453.641 229.432 453.474 230.293 453.614 231.132C453.754 231.971 454.191 232.731 454.846 233.274L455.01 233.393L453.83 234.952Z" fill="#1A2B56"></path><path d="M454.756 257.106L454.75 255.129L458.489 255.112L458.189 245.709L456.749 239.079L456.489 236.097L458.46 235.922L458.715 238.842L460.16 245.551L460.527 257.077L454.756 257.106Z" fill="#1A2B56"></path><path d="M569.63 261.26C568.177 261.26 567 260.418 567 259.38C567 258.342 568.177 257.5 569.63 257.5C571.082 257.5 572.26 258.342 572.26 259.38C572.26 260.418 571.082 261.26 569.63 261.26Z" fill="#FAD1C4" stroke="#1A2B56" stroke-width="2" stroke-linecap="round" stroke-linejoin="round"></path><path d="M567.31 260.258L564 262.748C564.549 263.483 565.27 264.072 566.1 264.465C566.93 264.857 567.843 265.04 568.76 264.998" stroke="#1A2B56" stroke-width="2" stroke-linecap="round" stroke-linejoin="round"></path><path d="M572.002 260.148L572.232 260.498C573.269 262.325 573.788 264.399 573.732 266.498C573.732 270.248 568.482 269.498 568.482 267.248C568.464 265.959 568.72 264.681 569.232 263.498" stroke="#1A2B56" stroke-width="2" stroke-linecap="round" stroke-linejoin="round"></path><path d="M573.74 266.812C574.576 267.057 575.314 267.557 575.852 268.242C576.39 268.927 576.7 269.763 576.74 270.632C576.74 272.902 574.56 274.752 571.87 274.752C569.18 274.752 567 272.902 567 270.632C567.008 270.052 567.148 269.48 567.407 268.961C567.667 268.442 568.041 267.988 568.5 267.632" fill="#FAD1C4"></path><path d="M573.74 266.812C574.576 267.057 575.314 267.557 575.852 268.242C576.39 268.927 576.7 269.763 576.74 270.632C576.74 272.902 574.56 274.752 571.87 274.752C569.18 274.752 567 272.902 567 270.632C567.008 270.052 567.148 269.48 567.407 268.961C567.667 268.442 568.041 267.988 568.5 267.632" stroke="#1A2B56" stroke-width="2" stroke-linecap="round" stroke-linejoin="round"></path><path d="M574.682 267.25H581.252C582.752 267.25 583.502 268.75 583.502 270.25V274C583.483 274.261 583.54 274.521 583.666 274.75C583.792 274.979 583.981 275.167 584.212 275.29C584.451 275.417 584.651 275.608 584.79 275.84C584.93 276.073 585.003 276.339 585.002 276.61V278.5" stroke="#1A2B56" stroke-width="2" stroke-linecap="round" stroke-linejoin="round"></path><path d="M569.252 274.102V278.502" stroke="#1A2B56" stroke-width="2" stroke-linecap="round" stroke-linejoin="round"></path><path d="M573.752 274.43V278.5" stroke="#1A2B56" stroke-width="2" stroke-linecap="round" stroke-linejoin="round"></path><path d="M576.222 272.5H580.502" stroke="#1A2B56" stroke-width="2" stroke-linecap="round" stroke-linejoin="round"></path><path d="M579.001 272.5C578.791 274.23 579.301 274.96 579.771 275.27C579.979 275.406 580.149 275.592 580.268 275.81C580.386 276.028 580.449 276.272 580.451 276.52V278.52" stroke="#1A2B56" stroke-width="2" stroke-linecap="round" stroke-linejoin="round"></path><path d="M583.261 268.838C583.827 268.663 584.345 268.362 584.777 267.956C585.208 267.551 585.541 267.052 585.751 266.498C586.511 264.208 585.051 263.498 584.661 263.328" stroke="#1A2B56" stroke-width="2" stroke-linecap="round" stroke-linejoin="round"></path><path d="M583.88 263.51C582.841 263.51 582 262.668 582 261.63C582 260.592 582.841 259.75 583.88 259.75C584.918 259.75 585.76 260.592 585.76 261.63C585.76 262.668 584.918 263.51 583.88 263.51Z" fill="#FAD1C4" stroke="#1A2B56" stroke-width="2" stroke-linecap="round" stroke-linejoin="round"></path></g><path d="M1317.24 251.705C1318.48 250.722 1323.29 246.195 1324.74 244.827C1324.53 244.215 1324.42 243.571 1324.42 242.923C1324.42 240.301 1326.12 238.176 1328.22 238.176C1330.33 238.176 1332.03 240.301 1332.03 242.923C1332.03 245.545 1330.34 247.67 1328.22 247.67C1328.01 247.667 1327.81 247.645 1327.6 247.602L1325.56 254.384L1331.1 258.453L1330.23 259.617L1324.42 257.922L1323.25 262.188H1313.13C1313.13 262.188 1315.77 252.864 1317.24 251.705Z" fill="#FEF1E4"></path><ellipse cx="1327.86" cy="242.908" rx="3.66797" ry="4.94141" fill="#FEF8F2"></ellipse><path d="M1341.03 288.516C1339.28 288.517 1337.57 288.001 1336.12 287.031C1334.67 286.062 1333.54 284.684 1332.87 283.071C1332.2 281.458 1332.02 279.683 1332.36 277.97C1332.7 276.257 1333.54 274.684 1334.78 273.449C1336.01 272.214 1337.59 271.372 1339.3 271.031C1341.01 270.69 1342.79 270.865 1344.4 271.533C1346.01 272.201 1347.39 273.332 1348.36 274.784C1349.33 276.236 1349.85 277.943 1349.85 279.689C1349.85 282.028 1348.92 284.271 1347.26 285.925C1345.61 287.58 1343.37 288.512 1341.03 288.516ZM1341.03 272.845C1339.67 272.844 1338.35 273.245 1337.22 273.997C1336.09 274.749 1335.21 275.819 1334.7 277.071C1334.18 278.322 1334.04 279.7 1334.3 281.029C1334.57 282.358 1335.22 283.579 1336.18 284.538C1337.14 285.496 1338.36 286.148 1339.69 286.413C1341.02 286.677 1342.39 286.541 1343.65 286.021C1344.9 285.502 1345.97 284.623 1346.72 283.496C1347.47 282.369 1347.87 281.044 1347.87 279.689C1347.87 277.875 1347.15 276.136 1345.86 274.853C1344.58 273.57 1342.84 272.848 1341.03 272.845Z" fill="#1A2B56"></path><path d="M1312.83 288.516C1311.09 288.517 1309.38 288.001 1307.93 287.031C1306.47 286.062 1305.34 284.684 1304.67 283.071C1304 281.458 1303.83 279.683 1304.17 277.97C1304.51 276.257 1305.35 274.684 1306.58 273.449C1307.82 272.214 1309.39 271.372 1311.1 271.031C1312.82 270.69 1314.59 270.865 1316.2 271.533C1317.82 272.201 1319.2 273.332 1320.17 274.784C1321.14 276.236 1321.65 277.943 1321.65 279.689C1321.65 282.028 1320.72 284.271 1319.07 285.925C1317.41 287.58 1315.17 288.512 1312.83 288.516ZM1312.83 272.845C1311.48 272.844 1310.15 273.245 1309.03 273.997C1307.9 274.749 1307.02 275.819 1306.5 277.071C1305.98 278.322 1305.85 279.7 1306.11 281.029C1306.37 282.358 1307.03 283.579 1307.98 284.538C1308.94 285.496 1310.16 286.148 1311.49 286.413C1312.82 286.677 1314.2 286.541 1315.45 286.021C1316.7 285.502 1317.77 284.623 1318.52 283.496C1319.28 282.369 1319.68 281.044 1319.68 279.689C1319.67 277.875 1318.95 276.136 1317.67 274.853C1316.39 273.57 1314.65 272.848 1312.83 272.845Z" fill="#1A2B56"></path><path d="M1323.99 263.194H1312.12L1312.34 262.024C1313.74 254.844 1317.86 248.481 1323.84 244.262L1324.9 245.923L1324.34 245.092L1324.9 245.923C1319.76 249.644 1316.08 255.058 1314.53 261.216H1322.44L1323.41 257.678L1325.32 258.198L1323.99 263.194Z" fill="#1A2B56"></path><path d="M1326.13 247.506L1324.25 254.596L1326.16 255.103L1328.04 248.014L1326.13 247.506Z" fill="#1A2B56"></path><path d="M1328.34 248.684C1327.02 248.684 1325.66 247.735 1324.7 246.124L1326.39 245.107C1326.96 246.068 1327.75 246.706 1328.34 246.706H1328.37C1329.46 246.661 1330.88 244.491 1330.8 242.411C1330.78 242.091 1330.73 241.775 1330.64 241.467L1332.53 240.902C1332.67 241.367 1332.75 241.847 1332.78 242.332C1332.89 245.124 1330.99 248.577 1328.45 248.679L1328.34 248.684Z" fill="#1A2B56"></path><path d="M1324.89 246.379L1322.85 243.379V243.079C1322.85 242.921 1322.85 239.197 1325.14 237.462C1325.85 236.988 1326.67 236.703 1327.52 236.634C1328.36 236.564 1329.22 236.713 1329.99 237.066C1330.89 237.447 1331.67 238.062 1332.25 238.846C1332.83 239.63 1333.18 240.555 1333.29 241.525L1333.42 242.559L1329.06 242.893L1328.91 240.92L1331.06 240.756C1330.89 240.339 1330.64 239.96 1330.33 239.64C1330.01 239.319 1329.64 239.065 1329.22 238.891C1328.76 238.677 1328.26 238.58 1327.75 238.607C1327.25 238.635 1326.76 238.787 1326.32 239.05C1325.19 239.886 1324.88 241.813 1324.83 242.774L1326.53 245.266L1324.89 246.379Z" fill="#1A2B56"></path><path d="M1340.08 279.993L1333.91 260.637H1331.84C1331.77 260.782 1331.73 260.943 1331.73 261.106V261.58H1329.75V261.072C1329.75 260.671 1329.83 260.274 1329.98 259.903C1330.14 259.533 1330.36 259.196 1330.65 258.913L1330.94 258.619L1335.35 258.659L1341.97 279.371L1340.08 279.993Z" fill="#1A2B56"></path><path d="M1316.8 266.422L1311.86 279.219L1313.71 279.93L1318.64 267.133L1316.8 266.422Z" fill="#1A2B56"></path><path d="M1336.94 265.904H1327.29V267.882H1336.94V265.904Z" fill="#1A2B56"></path><path d="M1330.82 260.891L1320.11 257.771L1318.02 255.369L1320.85 250.062L1322.6 250.995L1320.41 255.098L1321.22 256.036L1331.37 258.992L1330.82 260.891Z" fill="#1A2B56"></path><path d="M1324.26 252.79L1323.13 254.416L1331.45 260.179L1332.58 258.554L1324.26 252.79Z" fill="#1A2B56"></path><path d="M1336.93 258.637H1334.62V260.615H1336.93V258.637Z" fill="#1A2B56"></path><path d="M1330.39 277.902H1327.75V279.88H1330.39V277.902Z" fill="#1A2B56"></path><path d="M1329.83 283.805H1324.71L1324.61 271.112C1322.09 270.186 1314.26 266.936 1313.75 262.313L1313.63 261.217H1323.73L1329.8 268.422L1328.24 281.805H1329.85L1329.83 283.805ZM1316.05 263.195C1317.62 266.111 1323.64 268.716 1325.89 269.473L1326.55 269.699L1326.63 278.431L1327.71 269.061L1322.78 263.195H1316.05Z" fill="#1A2B56"></path><path fill-rule="evenodd" clip-rule="evenodd" d="M836.242 12.5868C832.227 -4.50376 811.831 -1.77808 811.057 15.0362C806.14 8.75615 795.145 8.59041 793.156 20.6256H852.19C852.706 9.94402 844.152 6.0489 836.205 12.5868H836.242Z" fill="white"></path><path d="M794.499 45.0005C794.239 44.976 793.997 44.8553 793.821 44.662C793.645 44.4688 793.548 44.2168 793.548 43.9554C793.548 43.694 793.645 43.442 793.821 43.2487C793.997 43.0554 794.239 42.9347 794.499 42.9102H825.577C825.723 42.8965 825.869 42.9134 826.008 42.9597C826.147 43.006 826.274 43.0808 826.382 43.1791C826.49 43.2775 826.577 43.3974 826.636 43.531C826.695 43.6647 826.725 43.8092 826.725 43.9554C826.725 44.1015 826.695 44.246 826.636 44.3797C826.577 44.5134 826.49 44.6332 826.382 44.7316C826.274 44.83 826.147 44.9047 826.008 44.951C825.869 44.9973 825.723 45.0142 825.577 45.0005H794.499ZM859.519 21.7312C859.243 21.7312 858.978 21.6217 858.783 21.4265C858.588 21.2314 858.478 20.9667 858.478 20.6907C858.478 20.4147 858.588 20.1501 858.783 19.955C858.978 19.7598 859.243 19.6502 859.519 19.6502H869.648C870.46 17.1914 872.117 15.1001 874.326 13.7477C875.89 12.8187 877.681 12.3407 879.501 12.3665C881.312 12.3972 883.077 12.9399 884.593 13.9319C886.615 15.2857 888.093 17.3113 888.764 19.6502H922.107C922.383 19.6502 922.648 19.7598 922.843 19.955C923.038 20.1501 923.148 20.4147 923.148 20.6907C923.148 20.9667 923.038 21.2314 922.843 21.4265C922.648 21.6217 922.383 21.7312 922.107 21.7312H879.749C879.473 21.7312 879.209 21.6217 879.014 21.4265C878.818 21.2314 878.709 20.9667 878.709 20.6907C878.709 20.4147 878.818 20.1501 879.014 19.955C879.209 19.7598 879.473 19.6502 879.749 19.6502H886.582C885.992 18.028 884.902 16.6352 883.469 15.6723C882.285 14.8971 880.907 14.4726 879.492 14.4475C878.053 14.4246 876.637 14.8041 875.403 15.5433C873.451 16.7627 872.036 18.6785 871.443 20.9025C871.391 21.1372 871.261 21.3472 871.073 21.4978C870.886 21.6484 870.653 21.7307 870.412 21.7312H859.519ZM929.778 21.7312C929.502 21.7312 929.237 21.6217 929.042 21.4265C928.847 21.2314 928.737 20.9667 928.737 20.6907C928.737 20.4147 928.847 20.1501 929.042 19.955C929.237 19.7598 929.502 19.6502 929.778 19.6502H937.384C937.66 19.6502 937.924 19.7598 938.12 19.955C938.315 20.1501 938.424 20.4147 938.424 20.6907C938.424 20.9667 938.315 21.2314 938.12 21.4265C937.924 21.6217 937.66 21.7312 937.384 21.7312H929.778ZM834.5 12.8913C833.294 7.74394 830.54 4.53027 827.327 3.06616C825.66 2.29073 823.816 1.97291 821.986 2.14534C820.141 2.33036 818.375 2.98671 816.857 4.0514C813.846 6.15088 811.618 9.89863 811.332 15.1013C811.318 15.3765 811.196 15.6351 810.993 15.8211C810.789 16.0072 810.521 16.1058 810.245 16.0958C810.091 16.0869 809.94 16.0445 809.803 15.9713C809.666 15.8982 809.547 15.7961 809.454 15.6723C807.923 13.7285 805.73 12.4171 803.293 11.989C802.236 11.8074 801.153 11.8387 800.107 12.081C799.05 12.3224 798.06 12.7941 797.207 13.4623C795.354 15.0489 794.102 17.2236 793.661 19.6226H850.449C850.545 17.1941 849.807 14.8058 848.358 12.8545C847.782 12.1426 847.06 11.5618 846.24 11.151C845.421 10.7484 844.528 10.5196 843.616 10.4788C841.333 10.3683 838.717 11.3075 836.139 13.4254C835.925 13.6016 835.65 13.686 835.374 13.6601C835.098 13.6342 834.843 13.5002 834.666 13.2873C834.566 13.1641 834.496 13.0189 834.463 12.8637L834.5 12.8913ZM828.192 1.16927C831.618 2.73467 834.583 5.92072 836.121 10.8932C838.327 9.25757 841.008 8.39061 843.754 8.42531C844.96 8.4755 846.141 8.78049 847.22 9.32012C848.3 9.85974 849.252 10.6218 850.016 11.5561C851.738 13.6556 852.732 16.7496 852.557 20.6631C852.557 20.8005 852.53 20.9366 852.477 21.0634C852.424 21.1903 852.347 21.3054 852.249 21.4021C852.152 21.4989 852.036 21.5754 851.909 21.6271C851.781 21.6788 851.645 21.7049 851.508 21.7036H792.271C792 21.6563 791.758 21.5042 791.598 21.2803C791.438 21.0564 791.372 20.7786 791.415 20.5066C792.096 16.3629 793.8 13.5359 796.019 11.8324C797.102 10.9779 798.359 10.3713 799.702 10.0552C801.011 9.75591 802.366 9.71836 803.689 9.9447C805.855 10.3116 807.878 11.2673 809.536 12.7072C809.8 10.6504 810.48 8.66905 811.537 6.88457C812.593 5.1001 814.002 3.55004 815.678 2.32946C817.489 1.06292 819.594 0.282929 821.793 0.0642657C823.997 -0.160082 826.222 0.205337 828.238 1.12318L828.192 1.16927ZM737.952 36.3171C737.691 36.2927 737.449 36.172 737.273 35.9787C737.097 35.7854 737 35.5334 737 35.272C737 35.0106 737.097 34.7586 737.273 34.5653C737.449 34.372 737.691 34.2513 737.952 34.2268H751.764C752.641 31.46 754.472 29.0943 756.93 27.5509C758.594 26.5396 760.507 26.0134 762.455 26.0315C764.405 26.0624 766.306 26.6502 767.934 27.7258C770.204 29.2767 771.854 31.5789 772.593 34.2268H775.816C776.076 34.2513 776.318 34.372 776.494 34.5653C776.67 34.7586 776.767 35.0106 776.767 35.272C776.767 35.5334 776.67 35.7854 776.494 35.9787C776.318 36.172 776.076 36.2927 775.816 36.3171H764.923C764.777 36.3308 764.63 36.3139 764.492 36.2676C764.353 36.2213 764.226 36.1466 764.118 36.0482C764.01 35.9498 763.923 35.83 763.864 35.6963C763.805 35.5627 763.775 35.4181 763.775 35.272C763.775 35.1259 763.805 34.9813 763.864 34.8477C763.923 34.714 764.01 34.5942 764.118 34.4958C764.226 34.3974 764.353 34.3227 764.492 34.2764C764.63 34.2301 764.777 34.2132 764.923 34.2268H770.447C769.795 32.2866 768.528 30.6121 766.838 29.457C765.541 28.6025 764.026 28.136 762.473 28.1126C760.902 28.0959 759.358 28.5202 758.016 29.3373C755.796 30.7585 754.2 32.9706 753.55 35.5252C753.493 35.7508 753.363 35.9511 753.179 36.0944C752.996 36.2378 752.77 36.3161 752.537 36.3171H737.952ZM782.814 36.3171C782.554 36.2927 782.312 36.172 782.136 35.9787C781.96 35.7854 781.863 35.5334 781.863 35.272C781.863 35.0106 781.96 34.7586 782.136 34.5653C782.312 34.372 782.554 34.2513 782.814 34.2268H805.697C805.957 34.2513 806.199 34.372 806.375 34.5653C806.551 34.7586 806.648 35.0106 806.648 35.272C806.648 35.5334 806.551 35.7854 806.375 35.9787C806.199 36.172 805.957 36.2927 805.697 36.3171H782.814ZM832.539 45.0097C832.393 45.0234 832.246 45.0065 832.108 44.9602C831.969 44.9139 831.842 44.8392 831.734 44.7408C831.626 44.6424 831.539 44.5226 831.48 44.3889C831.421 44.2552 831.391 44.1107 831.391 43.9646C831.391 43.8184 831.421 43.6739 831.48 43.5402C831.539 43.4066 831.626 43.2867 831.734 43.1884C831.842 43.09 831.969 43.0153 832.108 42.9689C832.246 42.9226 832.393 42.9058 832.539 42.9194H840.338C840.598 42.9439 840.84 43.0646 841.016 43.2579C841.192 43.4512 841.29 43.7032 841.29 43.9646C841.29 44.226 841.192 44.478 841.016 44.6713C840.84 44.8646 840.598 44.9853 840.338 45.0097H832.539Z" fill="#1A2B56"></path><path fill-rule="evenodd" clip-rule="evenodd" d="M1280.72 52.7792C1283.48 36.5727 1305.83 34.5929 1305.91 55.2286C1310.82 48.9485 1325.3 48.4605 1325.3 60.818H1264.88C1264.36 50.1456 1272.78 46.2506 1280.72 52.7792Z" fill="white"></path><path d="M1308.79 82.545C1309.05 82.5205 1309.29 82.3998 1309.47 82.2065C1309.64 82.0132 1309.74 81.7612 1309.74 81.4998C1309.74 81.2384 1309.64 80.9864 1309.47 80.7931C1309.29 80.5998 1309.05 80.4791 1308.79 80.4547H1277.71C1277.57 80.441 1277.42 80.4579 1277.28 80.5042C1277.14 80.5505 1277.02 80.6252 1276.91 80.7236C1276.8 80.822 1276.71 80.9418 1276.65 81.0755C1276.6 81.2091 1276.56 81.3537 1276.56 81.4998C1276.56 81.646 1276.6 81.7905 1276.65 81.9241C1276.71 82.0578 1276.8 82.1777 1276.91 82.276C1277.02 82.3744 1277.14 82.4491 1277.28 82.4954C1277.42 82.5418 1277.57 82.5586 1277.71 82.545H1308.79ZM1283.52 52.8913C1284.73 47.7439 1287.48 44.5303 1290.7 43.0662C1292.36 42.2907 1294.21 41.9729 1296.04 42.1453C1297.88 42.3304 1299.65 42.9867 1301.17 44.0514C1304.18 46.1509 1306.41 49.8986 1306.69 55.1013C1306.71 55.3765 1306.83 55.6351 1307.03 55.8211C1307.23 56.0072 1307.5 56.1058 1307.78 56.0958C1307.93 56.0869 1308.08 56.0445 1308.22 55.9713C1308.36 55.8982 1308.48 55.7961 1308.57 55.6723C1310.1 53.7285 1312.29 52.4171 1314.73 51.989C1315.79 51.8074 1316.87 51.8387 1317.92 52.081C1318.97 52.3224 1319.96 52.794 1320.82 53.4623C1322.67 55.0489 1323.92 57.2236 1324.36 59.6226H1267.57C1267.48 57.1941 1268.22 54.8058 1269.66 52.8545C1270.24 52.1426 1270.96 51.5618 1271.78 51.151C1272.6 50.7484 1273.5 50.5196 1274.41 50.4788C1276.69 50.3683 1279.31 51.3075 1281.88 53.4254C1282.1 53.6016 1282.37 53.686 1282.65 53.6601C1282.93 53.6342 1283.18 53.5002 1283.36 53.2873C1283.46 53.1641 1283.53 53.0189 1283.56 52.8637L1283.52 52.8913ZM1289.83 41.1693C1286.41 42.7347 1283.44 45.9207 1281.9 50.8932C1279.7 49.2576 1277.01 48.3906 1274.27 48.4253C1273.06 48.4755 1271.88 48.7805 1270.8 49.3201C1269.72 49.8597 1268.77 50.6218 1268.01 51.5561C1266.29 53.6556 1265.29 56.7496 1265.47 60.6631C1265.47 60.8005 1265.49 60.9366 1265.55 61.0634C1265.6 61.1903 1265.68 61.3054 1265.77 61.4021C1265.87 61.4989 1265.99 61.5753 1266.11 61.6271C1266.24 61.6788 1266.38 61.7049 1266.52 61.7036H1325.75C1326.02 61.6563 1326.27 61.5042 1326.43 61.2803C1326.59 61.0564 1326.65 60.7786 1326.61 60.5066C1325.93 56.3629 1324.22 53.5359 1322 51.8324C1320.92 50.9779 1319.66 50.3713 1318.32 50.0552C1317.01 49.7559 1315.66 49.7184 1314.33 49.9447C1312.17 50.3116 1310.15 51.2673 1308.49 52.7072C1308.22 50.6504 1307.54 48.6691 1306.49 46.8846C1305.43 45.1001 1304.02 43.55 1302.34 42.3295C1300.53 41.0629 1298.43 40.2829 1296.23 40.0643C1294.03 39.8399 1291.8 40.2053 1289.78 41.1232L1289.83 41.1693ZM1365.34 73.8616C1365.6 73.8371 1365.84 73.7164 1366.02 73.5231C1366.19 73.3298 1366.29 73.0779 1366.29 72.8164C1366.29 72.555 1366.19 72.3031 1366.02 72.1098C1365.84 71.9165 1365.6 71.7958 1365.34 71.7713H1351.53C1350.65 69.0045 1348.82 66.6388 1346.36 65.0953C1344.7 64.0841 1342.78 63.5579 1340.84 63.576C1338.88 63.6069 1336.98 64.1947 1335.36 65.2703C1333.09 66.8212 1331.44 69.1233 1330.7 71.7713H1327.47C1327.21 71.7958 1326.97 71.9165 1326.8 72.1098C1326.62 72.3031 1326.52 72.555 1326.52 72.8164C1326.52 73.0779 1326.62 73.3298 1326.8 73.5231C1326.97 73.7164 1327.21 73.8371 1327.47 73.8616H1338.37C1338.51 73.8753 1338.66 73.8584 1338.8 73.8121C1338.94 73.7658 1339.06 73.691 1339.17 73.5927C1339.28 73.4943 1339.37 73.3744 1339.43 73.2408C1339.49 73.1071 1339.52 72.9626 1339.52 72.8164C1339.52 72.6703 1339.49 72.5258 1339.43 72.3921C1339.37 72.2585 1339.28 72.1386 1339.17 72.0402C1339.06 71.9419 1338.94 71.8671 1338.8 71.8208C1338.66 71.7745 1338.51 71.7576 1338.37 71.7713H1332.84C1333.5 69.8311 1334.76 68.1565 1336.45 67.0014C1337.75 66.1469 1339.26 65.6805 1340.82 65.657C1342.39 65.6403 1343.93 66.0647 1345.27 66.8817C1347.49 68.303 1349.09 70.5151 1349.74 73.0697C1349.8 73.2953 1349.93 73.4955 1350.11 73.6389C1350.29 73.7822 1350.52 73.8606 1350.75 73.8616H1365.34ZM1320.48 73.8616C1320.74 73.8371 1320.98 73.7164 1321.15 73.5231C1321.33 73.3298 1321.43 73.0779 1321.43 72.8164C1321.43 72.555 1321.33 72.3031 1321.15 72.1098C1320.98 71.9165 1320.74 71.7958 1320.48 71.7713H1297.59C1297.33 71.7958 1297.09 71.9165 1296.92 72.1098C1296.74 72.3031 1296.64 72.555 1296.64 72.8164C1296.64 73.0779 1296.74 73.3298 1296.92 73.5231C1297.09 73.7164 1297.33 73.8371 1297.59 73.8616H1320.48ZM1270.75 82.5542C1270.9 82.5678 1271.04 82.551 1271.18 82.5047C1271.32 82.4584 1271.45 82.3836 1271.56 82.2852C1271.66 82.1869 1271.75 82.067 1271.81 81.9334C1271.87 81.7997 1271.9 81.6552 1271.9 81.509C1271.9 81.3629 1271.87 81.2184 1271.81 81.0847C1271.75 80.951 1271.66 80.8312 1271.56 80.7328C1271.45 80.6344 1271.32 80.5597 1271.18 80.5134C1271.04 80.4671 1270.9 80.4502 1270.75 80.4639H1262.95C1262.69 80.4883 1262.45 80.609 1262.27 80.8023C1262.1 80.9956 1262 81.2476 1262 81.509C1262 81.7704 1262.1 82.0224 1262.27 82.2157C1262.45 82.409 1262.69 82.5297 1262.95 82.5542H1270.75Z" fill="#1A2B56"></path><path fill-rule="evenodd" clip-rule="evenodd" d="M247.568 55.7792C244.805 39.5727 222.457 37.5929 222.383 58.2286C217.466 51.9485 202.99 51.4605 202.99 63.818H263.415C263.931 53.1456 255.514 49.2506 247.568 55.7792Z" fill="white"></path><path d="M219.499 85.545C219.239 85.5205 218.997 85.3998 218.821 85.2065C218.645 85.0132 218.548 84.7612 218.548 84.4998C218.548 84.2384 218.645 83.9864 218.821 83.7931C218.997 83.5998 219.239 83.4791 219.499 83.4547H250.577C250.723 83.441 250.869 83.4579 251.008 83.5042C251.147 83.5505 251.274 83.6252 251.382 83.7236C251.49 83.822 251.577 83.9418 251.636 84.0755C251.695 84.2091 251.725 84.3537 251.725 84.4998C251.725 84.646 251.695 84.7905 251.636 84.9241C251.577 85.0578 251.49 85.1777 251.382 85.276C251.274 85.3744 251.147 85.4491 251.008 85.4954C250.869 85.5418 250.723 85.5586 250.577 85.545H219.499ZM244.767 55.8913C243.56 50.7439 240.807 47.5303 237.594 46.0662C235.927 45.2907 234.083 44.9729 232.253 45.1453C230.408 45.3304 228.642 45.9867 227.124 47.0514C224.113 49.1509 221.884 52.8986 221.599 58.1013C221.585 58.3765 221.463 58.6351 221.259 58.8211C221.056 59.0072 220.788 59.1058 220.512 59.0958C220.357 59.0869 220.206 59.0445 220.07 58.9713C219.933 58.8982 219.814 58.7961 219.72 58.6723C218.19 56.7285 215.997 55.4171 213.56 54.989C212.503 54.8074 211.419 54.8387 210.374 55.081C209.317 55.3224 208.327 55.794 207.473 56.4623C205.621 58.0489 204.369 60.2236 203.928 62.6226H260.716C260.812 60.1941 260.074 57.8058 258.625 55.8545C258.048 55.1426 257.326 54.5618 256.507 54.151C255.688 53.7484 254.795 53.5196 253.883 53.4788C251.599 53.3683 248.984 54.3075 246.406 56.4254C246.192 56.6016 245.917 56.686 245.641 56.6601C245.365 56.6342 245.11 56.5002 244.933 56.2873C244.833 56.1641 244.763 56.0189 244.73 55.8637L244.767 55.8913ZM238.459 44.1693C241.885 45.7347 244.85 48.9207 246.387 53.8932C248.593 52.2576 251.275 51.3906 254.021 51.4253C255.227 51.4755 256.408 51.7805 257.487 52.3201C258.566 52.8597 259.519 53.6218 260.283 54.5561C262.005 56.6556 262.999 59.7496 262.824 63.6631C262.824 63.8005 262.797 63.9366 262.744 64.0634C262.691 64.1903 262.614 64.3054 262.516 64.4021C262.419 64.4989 262.303 64.5753 262.175 64.6271C262.048 64.6788 261.912 64.7049 261.774 64.7036H202.538C202.267 64.6563 202.025 64.5042 201.865 64.2803C201.704 64.0564 201.639 63.7786 201.681 63.5066C202.363 59.3629 204.066 56.5359 206.286 54.8324C207.369 53.9779 208.626 53.3713 209.969 53.0552C211.278 52.7559 212.633 52.7184 213.956 52.9447C216.122 53.3116 218.144 54.2673 219.803 55.7072C220.067 53.6504 220.747 51.6691 221.803 49.8846C222.859 48.1001 224.269 46.55 225.945 45.3295C227.755 44.0629 229.861 43.2829 232.059 43.0643C234.264 42.8399 236.488 43.2053 238.505 44.1232L238.459 44.1693ZM162.952 76.8616C162.691 76.8371 162.449 76.7164 162.273 76.5231C162.097 76.3298 162 76.0779 162 75.8164C162 75.555 162.097 75.3031 162.273 75.1098C162.449 74.9165 162.691 74.7958 162.952 74.7713H176.764C177.641 72.0045 179.472 69.6388 181.93 68.0953C183.594 67.0841 185.507 66.5579 187.455 66.576C189.405 66.6069 191.306 67.1947 192.934 68.2703C195.204 69.8212 196.854 72.1233 197.593 74.7713H200.816C201.076 74.7958 201.318 74.9165 201.494 75.1098C201.67 75.3031 201.767 75.555 201.767 75.8164C201.767 76.0779 201.67 76.3298 201.494 76.5231C201.318 76.7164 201.076 76.8371 200.816 76.8616H189.923C189.777 76.8753 189.63 76.8584 189.492 76.8121C189.353 76.7658 189.226 76.691 189.118 76.5927C189.01 76.4943 188.923 76.3744 188.864 76.2408C188.805 76.1071 188.775 75.9626 188.775 75.8164C188.775 75.6703 188.805 75.5258 188.864 75.3921C188.923 75.2585 189.01 75.1386 189.118 75.0402C189.226 74.9419 189.353 74.8671 189.492 74.8208C189.63 74.7745 189.777 74.7576 189.923 74.7713H195.447C194.795 72.8311 193.528 71.1565 191.838 70.0014C190.541 69.1469 189.026 68.6805 187.473 68.657C185.902 68.6403 184.358 69.0647 183.016 69.8817C180.796 71.303 179.2 73.5151 178.55 76.0697C178.493 76.2953 178.363 76.4955 178.179 76.6389C177.996 76.7822 177.77 76.8606 177.537 76.8616H162.952ZM207.814 76.8616C207.554 76.8371 207.312 76.7164 207.136 76.5231C206.96 76.3298 206.863 76.0779 206.863 75.8164C206.863 75.555 206.96 75.3031 207.136 75.1098C207.312 74.9165 207.554 74.7958 207.814 74.7713H230.697C230.957 74.7958 231.199 74.9165 231.375 75.1098C231.551 75.3031 231.648 75.555 231.648 75.8164C231.648 76.0779 231.551 76.3298 231.375 76.5231C231.199 76.7164 230.957 76.8371 230.697 76.8616H207.814ZM257.539 85.5542C257.393 85.5678 257.246 85.551 257.108 85.5047C256.969 85.4584 256.842 85.3836 256.734 85.2852C256.626 85.1869 256.539 85.067 256.48 84.9334C256.421 84.7997 256.391 84.6552 256.391 84.509C256.391 84.3629 256.421 84.2184 256.48 84.0847C256.539 83.951 256.626 83.8312 256.734 83.7328C256.842 83.6344 256.969 83.5597 257.108 83.5134C257.246 83.4671 257.393 83.4502 257.539 83.4639H265.338C265.598 83.4883 265.84 83.609 266.016 83.8023C266.192 83.9956 266.29 84.2476 266.29 84.509C266.29 84.7704 266.192 85.0224 266.016 85.2157C265.84 85.409 265.598 85.5297 265.338 85.5542H257.539Z" fill="#1A2B56"></path><g clip-path="url(#clip1_426_4917)"><path d="M613 33.5L591.54 31.7603C589.38 31.5607 587.204 31.9242 585.227 32.8154C583.249 33.7066 581.536 35.095 580.254 36.8454L579.143 38.3617L567.07 40.2934V44.6397L570.576 46.8707C575.227 49.8284 580.624 51.3996 586.136 51.4005C598.921 51.4 611.689 50.4736 624.339 48.6286L643.56 44.9101C644.727 44.6844 645.806 44.13 646.669 43.3122C647.532 42.4943 648.144 41.447 648.432 40.2934L620.785 36.1451" fill="white"></path><path d="M596.253 33.1094L593.5 40.5753L607.413 40.7298C608.399 40.7409 609.365 40.4498 610.181 39.8955C610.997 39.3412 611.623 38.5504 611.976 37.6295L612.459 36.3498" fill="#FAD1C4"></path><path d="M582.753 33.1074L581 36.3478L580 39L586 41.5C586.986 41.5111 589.184 39.5543 590 39C590.816 38.4457 591.442 37.6549 591.795 36.734L592.5 32" fill="#FAD1C4"></path><path d="M593.742 31.9631L591.54 31.7603C589.38 31.5607 587.204 31.9242 585.227 32.8154C583.249 33.7066 581.536 35.095 580.254 36.8454L579.143 38.3617L567.07 40.2934V44.6397L570.576 46.8707C575.227 49.8284 580.624 51.3996 586.136 51.4005C598.921 51.4 611.689 50.4736 624.339 48.6286L643.56 44.9101C644.727 44.6844 645.806 44.13 646.669 43.3122C647.532 42.4943 648.144 41.447 648.432 40.2934L620.785 36.1451" stroke="#1A2B56" stroke-width="2" stroke-linejoin="round"></path><path d="M567.031 43.5919C564.785 43.5919 562.965 42.8675 562.965 41.9693C562.965 41.0711 564.785 40.3516 567.031 40.3516" stroke="#1A2B56" stroke-width="2" stroke-linejoin="round"></path><path d="M622.453 36.3997C631.802 37.8002 637.989 32.8213 641.118 29.2671C642.022 28.2342 643.135 27.4058 644.384 26.837C645.633 26.2683 646.989 25.9723 648.362 25.9688H651.887L648.415 40.2969L622.453 36.3997Z" stroke="#1A2B56" stroke-width="2" stroke-linejoin="round"></path><path d="M622.453 36.3997C631.802 37.8002 637.989 32.8213 641.118 29.2671C642.022 28.2342 643.135 27.4058 644.384 26.837C645.633 26.2683 646.989 25.9723 648.362 25.9688H651.887L648.415 40.2969L622.453 36.3997Z" fill="#FAD1C4" stroke="#1A2B56" stroke-width="2" stroke-linejoin="round"></path><path d="M579.145 38.3639C581.009 40.2209 583.534 41.2628 586.166 41.2614V41.2614C587.122 41.2625 588.055 40.9756 588.845 40.4381C589.635 39.9005 590.245 39.1373 590.595 38.248L593.009 32.0859" stroke="#1A2B56" stroke-width="2" stroke-linejoin="round"></path><path d="M567.07 44.6386L614.164 44.3537C617.143 44.3372 620.088 43.7236 622.825 42.549C625.562 41.3745 628.036 39.6629 630.101 37.5156" stroke="#1A2B56" stroke-width="2" stroke-linejoin="round"></path><path d="M573.109 47.9806L615.355 47.7247C624.332 47.6701 633.287 46.8184 642.113 45.1797V45.1797" stroke="#1A2B56" stroke-width="2" stroke-linecap="round" stroke-linejoin="round"></path><path d="M590.411 57.4375C591.35 57.4375 592.25 57.8104 592.914 58.4743C593.578 59.1381 593.951 60.0385 593.951 60.9773V61.3829H586.871V60.9773C586.871 60.0385 587.244 59.1381 587.908 58.4743C588.572 57.8104 589.472 57.4375 590.411 57.4375V57.4375Z" stroke="#1A2B56" stroke-width="2" stroke-miterlimit="10"></path><path d="M587.676 61.3008C587.705 62.0065 588.007 62.6734 588.516 63.1622C589.026 63.651 589.705 63.924 590.412 63.924C591.118 63.924 591.797 63.651 592.307 63.1622C592.816 62.6734 593.118 62.0065 593.147 61.3008H587.676Z" stroke="#1A2B56" stroke-width="2" stroke-linejoin="round"></path><path d="M590.41 57.4349L592.182 51.3984" stroke="#1A2B56" stroke-width="2" stroke-miterlimit="10"></path><path d="M645.481 53.0872C646.713 53.0872 647.712 52.0883 647.712 50.8561C647.712 49.6239 646.713 48.625 645.481 48.625C644.249 48.625 643.25 49.6239 643.25 50.8561C643.25 52.0883 644.249 53.0872 645.481 53.0872Z" stroke="#1A2B56" stroke-width="2" stroke-miterlimit="10"></path><path d="M643.675 49.5453L638.059 45.9766" stroke="#1A2B56" stroke-width="2" stroke-miterlimit="10"></path><path d="M620.8 36.0569C611.041 37.096 601.179 35.599 592.168 31.7107C601.927 30.6726 611.789 32.1696 620.8 36.0569Z" stroke="#1A2B56" stroke-width="2" stroke-miterlimit="10"></path><path d="M599.91 44.6374L605.696 35.6406" stroke="#1A2B56" stroke-width="2" stroke-linejoin="round"></path><path d="M596.253 33.1094L593.5 40.5753L607.413 40.7298C608.399 40.7409 609.365 40.4498 610.181 39.8955C610.997 39.3412 611.623 38.5504 611.976 37.6295L612.459 36.3498" stroke="#1A2B56" stroke-width="2" stroke-linejoin="round"></path><path d="M648.381 25.9688L644.242 39.6643" stroke="#1A2B56" stroke-width="2" stroke-linejoin="round"></path><path d="M565.398 40.6758V34.2578" stroke="#1A2B56" stroke-width="2" stroke-linejoin="round"></path><path d="M565.398 49.8516V43.4336" stroke="#1A2B56" stroke-width="2" stroke-linejoin="round"></path></g><defs><clipPath id="clip0_426_4917"><rect width="1618" height="202" fill="white" transform="translate(-68 88.002)"></rect></clipPath><clipPath id="clip1_426_4917"><rect width="90.8705" height="40" fill="white" transform="translate(562 25)"></rect></clipPath></defs></svg>